<svg width="720" height="300" viewBox="0 0 720 300" fill="none" xmlns="http://www.w3.org/2000/svg">
<rect x="30.5" y="63.5" width="131" height="196" rx="9.5" fill="#343434"/>
<rect x="30.5" y="63.5" width="131" height="196" rx="9.5" stroke="#D9D9D9"/>
<path d="M69.7469 79.3636V80.358H65.6304V79.3636H69.7469ZM66.8634 87V78.3097C66.8634 77.8722 66.9661 77.5076 67.1716 77.2159C67.3771 76.9242 67.6439 76.7055 67.972 76.5597C68.3002 76.4138 68.6465 76.3409 69.0111 76.3409C69.2994 76.3409 69.5348 76.3641 69.7171 76.4105C69.8994 76.4569 70.0352 76.5 70.1247 76.5398L69.7867 77.554C69.727 77.5341 69.6441 77.5092 69.5381 77.4794C69.4353 77.4496 69.2994 77.4347 69.1304 77.4347C68.7426 77.4347 68.4626 77.5324 68.2902 77.728C68.1212 77.9235 68.0367 78.2102 68.0367 78.5881V87H66.8634ZM76.2037 83.8778V79.3636H77.377V87H76.2037V85.7074H76.1242C75.9452 86.0952 75.6668 86.425 75.289 86.6967C74.9111 86.9652 74.4339 87.0994 73.8572 87.0994C73.3799 87.0994 72.9556 86.995 72.5844 86.7862C72.2132 86.5741 71.9215 86.2559 71.7094 85.8317C71.4973 85.4041 71.3912 84.8655 71.3912 84.2159V79.3636H72.5645V84.1364C72.5645 84.6932 72.7203 85.1373 73.0319 85.4688C73.3467 85.8002 73.7478 85.9659 74.235 85.9659C74.5267 85.9659 74.8233 85.8913 75.1249 85.7422C75.4298 85.593 75.685 85.3643 75.8905 85.0561C76.0993 84.7479 76.2037 84.3551 76.2037 83.8778ZM80.6993 82.4062V87H79.526V79.3636H80.6595V80.5568H80.759C80.9379 80.169 81.2097 79.8575 81.5743 79.6222C81.9389 79.3835 82.4095 79.2642 82.9862 79.2642C83.5033 79.2642 83.9557 79.3703 84.3435 79.5824C84.7313 79.7912 85.0329 80.1094 85.2483 80.5369C85.4637 80.9612 85.5715 81.4981 85.5715 82.1477V87H84.3982V82.2273C84.3982 81.6274 84.2424 81.16 83.9308 80.8253C83.6193 80.4872 83.1917 80.3182 82.6482 80.3182C82.2736 80.3182 81.9389 80.3994 81.6439 80.5618C81.3522 80.7242 81.1219 80.9612 80.9529 81.2727C80.7838 81.5843 80.6993 81.9621 80.6993 82.4062ZM90.8177 87.1591C90.1018 87.1591 89.4854 86.9901 88.9683 86.652C88.4513 86.3139 88.0535 85.8482 87.7751 85.255C87.4967 84.6617 87.3575 83.9839 87.3575 83.2216C87.3575 82.446 87.5 81.7616 87.7851 81.1683C88.0734 80.5717 88.4745 80.1061 88.9882 79.7713C89.5052 79.4332 90.1085 79.2642 90.7979 79.2642C91.3348 79.2642 91.8187 79.3636 92.2496 79.5625C92.6804 79.7614 93.0334 80.0398 93.3085 80.3977C93.5836 80.7557 93.7543 81.1733 93.8206 81.6506H92.6473C92.5578 81.3026 92.3589 80.9943 92.0507 80.7259C91.7458 80.4541 91.3348 80.3182 90.8177 80.3182C90.3604 80.3182 89.9593 80.4375 89.6146 80.6761C89.2732 80.9115 89.0064 81.2446 88.8142 81.6754C88.6253 82.103 88.5308 82.6051 88.5308 83.1818C88.5308 83.7718 88.6236 84.2855 88.8092 84.723C88.9981 85.1605 89.2633 85.5002 89.6047 85.7422C89.9494 85.9841 90.3537 86.1051 90.8177 86.1051C91.1227 86.1051 91.3994 86.0521 91.648 85.946C91.8966 85.84 92.107 85.6875 92.2794 85.4886C92.4517 85.2898 92.5744 85.0511 92.6473 84.7727H93.8206C93.7543 85.2235 93.5902 85.6295 93.3284 85.9908C93.0699 86.3487 92.7268 86.6338 92.2993 86.8459C91.875 87.0547 91.3812 87.1591 90.8177 87.1591ZM98.8568 79.3636V80.358H94.8994V79.3636H98.8568ZM96.0528 77.5341H97.2261V84.8125C97.2261 85.1439 97.2742 85.3925 97.3703 85.5582C97.4697 85.7206 97.5957 85.83 97.7481 85.8864C97.9039 85.9394 98.068 85.9659 98.2403 85.9659C98.3696 85.9659 98.4756 85.9593 98.5585 85.946C98.6414 85.9295 98.7077 85.9162 98.7574 85.9062L98.996 86.9602C98.9165 86.9901 98.8054 87.0199 98.6629 87.0497C98.5204 87.0829 98.3398 87.0994 98.121 87.0994C97.7896 87.0994 97.4648 87.0282 97.1466 86.8857C96.8317 86.7431 96.5699 86.526 96.3611 86.2344C96.1556 85.9427 96.0528 85.5748 96.0528 85.1307V77.5341ZM100.622 87V79.3636H101.795V87H100.622ZM101.218 78.0909C100.99 78.0909 100.792 78.013 100.627 77.8572C100.464 77.7015 100.383 77.5142 100.383 77.2955C100.383 77.0767 100.464 76.8894 100.627 76.7337C100.792 76.5779 100.99 76.5 101.218 76.5C101.447 76.5 101.643 76.5779 101.805 76.7337C101.971 76.8894 102.054 77.0767 102.054 77.2955C102.054 77.5142 101.971 77.7015 101.805 77.8572C101.643 78.013 101.447 78.0909 101.218 78.0909ZM107.046 87.1591C106.357 87.1591 105.752 86.995 105.232 86.6669C104.715 86.3388 104.31 85.8797 104.019 85.2898C103.73 84.6998 103.586 84.0104 103.586 83.2216C103.586 82.4261 103.73 81.7318 104.019 81.1385C104.31 80.5452 104.715 80.0845 105.232 79.7564C105.752 79.4283 106.357 79.2642 107.046 79.2642C107.736 79.2642 108.339 79.4283 108.856 79.7564C109.376 80.0845 109.781 80.5452 110.069 81.1385C110.361 81.7318 110.506 82.4261 110.506 83.2216C110.506 84.0104 110.361 84.6998 110.069 85.2898C109.781 85.8797 109.376 86.3388 108.856 86.6669C108.339 86.995 107.736 87.1591 107.046 87.1591ZM107.046 86.1051C107.57 86.1051 108.001 85.9709 108.339 85.7024C108.677 85.4339 108.927 85.081 109.09 84.6435C109.252 84.206 109.333 83.732 109.333 83.2216C109.333 82.7112 109.252 82.2356 109.09 81.7947C108.927 81.3539 108.677 80.9976 108.339 80.7259C108.001 80.4541 107.57 80.3182 107.046 80.3182C106.523 80.3182 106.092 80.4541 105.754 80.7259C105.416 80.9976 105.165 81.3539 105.003 81.7947C104.841 82.2356 104.759 82.7112 104.759 83.2216C104.759 83.732 104.841 84.206 105.003 84.6435C105.165 85.081 105.416 85.4339 105.754 85.7024C106.092 85.9709 106.523 86.1051 107.046 86.1051ZM113.471 82.4062V87H112.297V79.3636H113.431V80.5568H113.53C113.709 80.169 113.981 79.8575 114.346 79.6222C114.71 79.3835 115.181 79.2642 115.758 79.2642C116.275 79.2642 116.727 79.3703 117.115 79.5824C117.503 79.7912 117.804 80.1094 118.02 80.5369C118.235 80.9612 118.343 81.4981 118.343 82.1477V87H117.17V82.2273C117.17 81.6274 117.014 81.16 116.702 80.8253C116.391 80.4872 115.963 80.3182 115.42 80.3182C115.045 80.3182 114.71 80.3994 114.415 80.5618C114.124 80.7242 113.893 80.9612 113.724 81.2727C113.555 81.5843 113.471 81.9621 113.471 82.4062ZM125.896 81.0739L124.842 81.3722C124.776 81.1965 124.678 81.0258 124.549 80.8601C124.423 80.6911 124.25 80.5518 124.032 80.4425C123.813 80.3331 123.533 80.2784 123.191 80.2784C122.724 80.2784 122.335 80.3861 122.023 80.6016C121.715 80.8137 121.561 81.0838 121.561 81.4119C121.561 81.7036 121.667 81.9339 121.879 82.103C122.091 82.272 122.423 82.4129 122.873 82.5256L124.007 82.804C124.69 82.9697 125.198 83.2232 125.533 83.5646C125.868 83.9027 126.035 84.3385 126.035 84.8722C126.035 85.3097 125.909 85.7008 125.657 86.0455C125.409 86.3902 125.061 86.6619 124.613 86.8608C124.166 87.0597 123.646 87.1591 123.052 87.1591C122.273 87.1591 121.629 86.9901 121.118 86.652C120.608 86.3139 120.285 85.8201 120.149 85.1705L121.263 84.892C121.369 85.303 121.569 85.6113 121.864 85.8168C122.162 86.0223 122.552 86.125 123.032 86.125C123.579 86.125 124.013 86.009 124.335 85.777C124.66 85.5417 124.822 85.2599 124.822 84.9318C124.822 84.6667 124.729 84.4446 124.544 84.2656C124.358 84.0833 124.073 83.9474 123.689 83.858L122.416 83.5597C121.717 83.3939 121.203 83.1371 120.875 82.7891C120.55 82.4377 120.388 81.9986 120.388 81.4716C120.388 81.0407 120.508 80.6596 120.75 80.3281C120.996 79.9967 121.329 79.7365 121.75 79.5476C122.174 79.3587 122.655 79.2642 123.191 79.2642C123.947 79.2642 124.54 79.4299 124.971 79.7614C125.406 80.0928 125.714 80.5303 125.896 81.0739Z" fill="white"/>
<rect x="44.5" y="99.5" width="103" height="43.3333" rx="7.5" fill="#171717"/>
<rect x="44.5" y="99.5" width="103" height="43.3333" rx="7.5" stroke="#D9D9D9"/>
<path d="M67.9165 128.121V119.121H68.8881V120.161H69.0075C69.0813 120.047 69.1836 119.902 69.3143 119.726C69.4478 119.547 69.6381 119.388 69.8853 119.249C70.1353 119.107 70.4734 119.036 70.8995 119.036C71.4506 119.036 71.9364 119.174 72.3569 119.449C72.7773 119.725 73.1055 120.116 73.3413 120.621C73.5771 121.127 73.695 121.723 73.695 122.411C73.695 123.104 73.5771 123.705 73.3413 124.214C73.1055 124.719 72.7788 125.111 72.3612 125.39C71.9435 125.665 71.462 125.803 70.9165 125.803C70.4961 125.803 70.1594 125.733 69.9066 125.594C69.6538 125.452 69.4592 125.292 69.3228 125.113C69.1864 124.931 69.0813 124.78 69.0075 124.661H68.9222V128.121H67.9165ZM68.9052 122.394C68.9052 122.888 68.9776 123.324 69.1225 123.702C69.2674 124.077 69.479 124.371 69.7575 124.584C70.0359 124.794 70.3768 124.9 70.7802 124.9C71.2006 124.9 71.5515 124.789 71.8327 124.567C72.1168 124.343 72.3299 124.042 72.4719 123.664C72.6168 123.283 72.6893 122.86 72.6893 122.394C72.6893 121.934 72.6183 121.519 72.4762 121.15C72.337 120.777 72.1254 120.483 71.8413 120.268C71.56 120.049 71.2063 119.939 70.7802 119.939C70.3711 119.939 70.0273 120.043 69.7489 120.25C69.4705 120.455 69.2603 120.742 69.1183 121.111C68.9762 121.478 68.9052 121.905 68.9052 122.394ZM77.1552 125.82C76.7404 125.82 76.364 125.742 76.0259 125.586C75.6879 125.427 75.4194 125.198 75.2205 124.9C75.0217 124.598 74.9222 124.235 74.9222 123.809C74.9222 123.434 74.9961 123.13 75.1438 122.897C75.2915 122.661 75.489 122.476 75.7362 122.343C75.9833 122.209 76.256 122.11 76.5543 122.044C76.8555 121.976 77.158 121.922 77.462 121.883C77.8597 121.831 78.1822 121.793 78.4293 121.768C78.6793 121.739 78.8612 121.692 78.9748 121.627C79.0913 121.562 79.1495 121.448 79.1495 121.286V121.252C79.1495 120.831 79.0344 120.505 78.8043 120.272C78.5771 120.039 78.2319 119.922 77.7688 119.922C77.2887 119.922 76.9123 120.027 76.6396 120.238C76.3668 120.448 76.1751 120.672 76.0643 120.911L75.1097 120.57C75.2802 120.172 75.5075 119.863 75.7915 119.641C76.0785 119.417 76.391 119.26 76.729 119.172C77.07 119.081 77.4052 119.036 77.7347 119.036C77.945 119.036 78.1864 119.062 78.4592 119.113C78.7347 119.161 79.0004 119.262 79.256 119.415C79.5146 119.569 79.729 119.8 79.8995 120.11C80.07 120.419 80.1552 120.834 80.1552 121.354V125.667H79.1495V124.78H79.0984C79.0302 124.922 78.9165 125.074 78.7575 125.236C78.5984 125.398 78.3867 125.536 78.1225 125.65C77.8583 125.763 77.5359 125.82 77.1552 125.82ZM77.3086 124.917C77.7063 124.917 78.0415 124.839 78.3143 124.682C78.5898 124.526 78.7972 124.324 78.9364 124.077C79.0785 123.83 79.1495 123.57 79.1495 123.297V122.377C79.1069 122.428 79.0131 122.475 78.8683 122.518C78.7262 122.557 78.5614 122.593 78.3739 122.624C78.1893 122.652 78.0089 122.678 77.8327 122.701C77.6594 122.721 77.5188 122.738 77.4109 122.752C77.1495 122.786 76.9052 122.841 76.6779 122.918C76.4535 122.992 76.2717 123.104 76.1325 123.255C75.9961 123.402 75.9279 123.604 75.9279 123.86C75.9279 124.209 76.0572 124.473 76.3157 124.652C76.5771 124.829 76.908 124.917 77.3086 124.917ZM82.4041 128.121C82.2337 128.121 82.0817 128.107 81.9482 128.079C81.8146 128.053 81.7223 128.027 81.6712 128.002L81.9268 127.116C82.1712 127.178 82.3871 127.201 82.5746 127.184C82.7621 127.167 82.9283 127.083 83.0732 126.932C83.2209 126.785 83.3558 126.544 83.478 126.212L83.6655 125.701L81.245 119.121H82.3359L84.1428 124.337H84.2109L86.0178 119.121H87.1087L84.3303 126.621C84.2053 126.959 84.0504 127.239 83.8658 127.461C83.6811 127.685 83.4666 127.851 83.2223 127.959C82.9808 128.067 82.7081 128.121 82.4041 128.121ZM88.4361 125.667V119.121H89.4077V120.144H89.4929C89.6293 119.794 89.8494 119.523 90.1534 119.33C90.4574 119.134 90.8224 119.036 91.2486 119.036C91.6804 119.036 92.0398 119.134 92.3267 119.33C92.6165 119.523 92.8423 119.794 93.0043 120.144H93.0724C93.2401 119.806 93.4915 119.537 93.8267 119.339C94.1619 119.137 94.5639 119.036 95.0327 119.036C95.6179 119.036 96.0966 119.219 96.4688 119.586C96.8409 119.949 97.027 120.516 97.027 121.286V125.667H96.0213V121.286C96.0213 120.803 95.8892 120.458 95.625 120.25C95.3608 120.043 95.0497 119.939 94.6918 119.939C94.2315 119.939 93.875 120.079 93.6222 120.357C93.3693 120.633 93.2429 120.982 93.2429 121.405V125.667H92.2202V121.184C92.2202 120.812 92.0994 120.512 91.858 120.285C91.6165 120.054 91.3054 119.939 90.9247 119.939C90.6634 119.939 90.419 120.009 90.1918 120.148C89.9673 120.287 89.7855 120.481 89.6463 120.728C89.5099 120.972 89.4418 121.255 89.4418 121.576V125.667H88.4361ZM101.61 125.803C100.979 125.803 100.435 125.664 99.978 125.385C99.5234 125.104 99.1726 124.712 98.9254 124.209C98.6811 123.704 98.5589 123.116 98.5589 122.445C98.5589 121.775 98.6811 121.184 98.9254 120.672C99.1726 120.158 99.5163 119.758 99.9567 119.471C100.4 119.181 100.917 119.036 101.508 119.036C101.849 119.036 102.185 119.093 102.518 119.206C102.85 119.32 103.153 119.505 103.425 119.76C103.698 120.013 103.915 120.348 104.077 120.766C104.239 121.184 104.32 121.698 104.32 122.309V122.735H99.2749V121.866H103.298C103.298 121.496 103.224 121.167 103.076 120.877C102.931 120.587 102.724 120.358 102.454 120.191C102.187 120.023 101.871 119.939 101.508 119.939C101.107 119.939 100.761 120.039 100.468 120.238C100.178 120.434 99.9553 120.689 99.799 121.005C99.6428 121.32 99.5646 121.658 99.5646 122.019V122.598C99.5646 123.093 99.6499 123.512 99.8203 123.856C99.9936 124.196 100.234 124.456 100.54 124.635C100.847 124.812 101.204 124.9 101.61 124.9C101.874 124.9 102.113 124.863 102.326 124.789C102.542 124.712 102.728 124.598 102.884 124.448C103.04 124.294 103.161 124.104 103.246 123.877L104.218 124.15C104.116 124.479 103.944 124.769 103.702 125.019C103.461 125.266 103.163 125.459 102.808 125.598C102.452 125.735 102.053 125.803 101.61 125.803ZM106.856 121.729V125.667H105.85V119.121H106.822V120.144H106.907C107.06 119.812 107.293 119.544 107.606 119.343C107.918 119.138 108.322 119.036 108.816 119.036C109.259 119.036 109.647 119.127 109.979 119.309C110.312 119.488 110.57 119.76 110.755 120.127C110.94 120.491 111.032 120.951 111.032 121.508V125.667H110.026V121.576C110.026 121.062 109.893 120.661 109.626 120.374C109.359 120.084 108.992 119.939 108.526 119.939C108.205 119.939 107.918 120.009 107.665 120.148C107.415 120.287 107.218 120.491 107.073 120.758C106.928 121.025 106.856 121.348 106.856 121.729ZM115.716 119.121V119.973H112.324V119.121H115.716ZM113.313 117.553H114.319V123.792C114.319 124.076 114.36 124.289 114.442 124.431C114.527 124.57 114.635 124.664 114.766 124.712C114.9 124.758 115.04 124.78 115.188 124.78C115.299 124.78 115.39 124.775 115.461 124.763C115.532 124.749 115.588 124.738 115.631 124.729L115.836 125.633C115.767 125.658 115.672 125.684 115.55 125.709C115.428 125.738 115.273 125.752 115.086 125.752C114.801 125.752 114.523 125.691 114.25 125.569C113.98 125.446 113.756 125.26 113.577 125.01C113.401 124.76 113.313 124.445 113.313 124.064V117.553ZM117.587 121.985C117.587 120.911 117.726 119.924 118.005 119.023C118.286 118.12 118.686 117.289 119.206 116.53H120.093C119.888 116.812 119.696 117.158 119.517 117.57C119.341 117.979 119.186 118.429 119.053 118.921C118.919 119.41 118.814 119.915 118.738 120.438C118.664 120.961 118.627 121.476 118.627 121.985C118.627 122.661 118.692 123.347 118.823 124.043C118.953 124.739 119.13 125.385 119.351 125.982C119.573 126.579 119.82 127.064 120.093 127.439H119.206C118.686 126.681 118.286 125.851 118.005 124.951C117.726 124.047 117.587 123.059 117.587 121.985ZM123.724 121.985C123.724 123.059 123.584 124.047 123.303 124.951C123.024 125.851 122.625 126.681 122.105 127.439H121.219C121.423 127.158 121.614 126.812 121.79 126.4C121.969 125.991 122.125 125.542 122.259 125.053C122.392 124.562 122.496 124.054 122.57 123.532C122.646 123.006 122.685 122.491 122.685 121.985C122.685 121.309 122.619 120.623 122.489 119.927C122.358 119.231 122.182 118.584 121.96 117.988C121.739 117.391 121.491 116.905 121.219 116.53H122.105C122.625 117.289 123.024 118.12 123.303 119.023C123.584 119.924 123.724 120.911 123.724 121.985Z" fill="white"/>
<rect x="44.5" y="152.833" width="103" height="43.3333" rx="7.5" fill="#171717"/>
<rect x="44.5" y="152.833" width="103" height="43.3333" rx="7.5" stroke="#D9D9D9"/>
<path d="M66.1353 179V172.455H67.141V179H66.1353ZM66.6467 171.364C66.4506 171.364 66.2816 171.297 66.1396 171.163C66.0004 171.03 65.9308 170.869 65.9308 170.682C65.9308 170.494 66.0004 170.334 66.1396 170.2C66.2816 170.067 66.4506 170 66.6467 170C66.8427 170 67.0103 170.067 67.1495 170.2C67.2915 170.334 67.3626 170.494 67.3626 170.682C67.3626 170.869 67.2915 171.03 67.1495 171.163C67.0103 171.297 66.8427 171.364 66.6467 171.364ZM69.9886 175.062V179H68.983V172.455H69.9545V173.477H70.0398C70.1932 173.145 70.4261 172.878 70.7386 172.676C71.0511 172.472 71.4545 172.369 71.9489 172.369C72.392 172.369 72.7798 172.46 73.1122 172.642C73.4446 172.821 73.7031 173.094 73.8878 173.46C74.0724 173.824 74.1648 174.284 74.1648 174.841V179H73.1591V174.909C73.1591 174.395 73.0256 173.994 72.7585 173.707C72.4915 173.418 72.125 173.273 71.6591 173.273C71.3381 173.273 71.0511 173.342 70.7983 173.482C70.5483 173.621 70.3509 173.824 70.206 174.091C70.0611 174.358 69.9886 174.682 69.9886 175.062ZM81.1204 172.455L78.6999 179H77.6772L75.2567 172.455H76.3477L78.1545 177.67H78.2227L80.0295 172.455H81.1204ZM84.9577 179.136C84.3271 179.136 83.783 178.997 83.3256 178.719C82.8711 178.437 82.5202 178.045 82.2731 177.543C82.0288 177.037 81.9066 176.449 81.9066 175.778C81.9066 175.108 82.0288 174.517 82.2731 174.006C82.5202 173.491 82.864 173.091 83.3043 172.804C83.7475 172.514 84.2646 172.369 84.8555 172.369C85.1964 172.369 85.533 172.426 85.8654 172.54C86.1978 172.653 86.5004 172.838 86.7731 173.094C87.0458 173.347 87.2631 173.682 87.4251 174.099C87.587 174.517 87.668 175.031 87.668 175.642V176.068H82.6225V175.199H86.6452C86.6452 174.83 86.5714 174.5 86.4237 174.21C86.2788 173.92 86.0714 173.692 85.8015 173.524C85.5344 173.357 85.2191 173.273 84.8555 173.273C84.4549 173.273 84.1083 173.372 83.8157 173.571C83.5259 173.767 83.3029 174.023 83.1467 174.338C82.9904 174.653 82.9123 174.991 82.9123 175.352V175.932C82.9123 176.426 82.9975 176.845 83.168 177.189C83.3413 177.53 83.5813 177.79 83.8881 177.969C84.195 178.145 84.5515 178.233 84.9577 178.233C85.2219 178.233 85.4606 178.196 85.6737 178.122C85.8896 178.045 86.0756 177.932 86.2319 177.781C86.3881 177.628 86.5089 177.437 86.5941 177.21L87.5657 177.483C87.4634 177.812 87.2915 178.102 87.0501 178.352C86.8086 178.599 86.5103 178.793 86.1552 178.932C85.8001 179.068 85.4009 179.136 84.9577 179.136ZM90.2035 175.062V179H89.1978V172.455H90.1694V173.477H90.2546C90.408 173.145 90.641 172.878 90.9535 172.676C91.266 172.472 91.6694 172.369 92.1637 172.369C92.6069 172.369 92.9947 172.46 93.3271 172.642C93.6594 172.821 93.918 173.094 94.1026 173.46C94.2873 173.824 94.3796 174.284 94.3796 174.841V179H93.3739V174.909C93.3739 174.395 93.2404 173.994 92.9734 173.707C92.7063 173.418 92.3398 173.273 91.8739 173.273C91.5529 173.273 91.266 173.342 91.0131 173.482C90.7631 173.621 90.5657 173.824 90.4208 174.091C90.2759 174.358 90.2035 174.682 90.2035 175.062ZM99.0639 172.455V173.307H95.6719V172.455H99.0639ZM96.6605 170.886H97.6662V177.125C97.6662 177.409 97.7074 177.622 97.7898 177.764C97.875 177.903 97.983 177.997 98.1136 178.045C98.2472 178.091 98.3878 178.114 98.5355 178.114C98.6463 178.114 98.7372 178.108 98.8082 178.097C98.8793 178.082 98.9361 178.071 98.9787 178.062L99.1832 178.966C99.1151 178.991 99.0199 179.017 98.8977 179.043C98.7756 179.071 98.6207 179.085 98.4332 179.085C98.1491 179.085 97.8707 179.024 97.598 178.902C97.3281 178.78 97.1037 178.594 96.9247 178.344C96.7486 178.094 96.6605 177.778 96.6605 177.398V170.886ZM103.165 179.136C102.575 179.136 102.056 178.996 101.61 178.714C101.167 178.433 100.82 178.04 100.57 177.534C100.323 177.028 100.2 176.437 100.2 175.761C100.2 175.08 100.323 174.484 100.57 173.976C100.82 173.467 101.167 173.072 101.61 172.791C102.056 172.51 102.575 172.369 103.165 172.369C103.756 172.369 104.273 172.51 104.717 172.791C105.163 173.072 105.509 173.467 105.756 173.976C106.006 174.484 106.131 175.08 106.131 175.761C106.131 176.437 106.006 177.028 105.756 177.534C105.509 178.04 105.163 178.433 104.717 178.714C104.273 178.996 103.756 179.136 103.165 179.136ZM103.165 178.233C103.614 178.233 103.984 178.118 104.273 177.888C104.563 177.658 104.778 177.355 104.917 176.98C105.056 176.605 105.126 176.199 105.126 175.761C105.126 175.324 105.056 174.916 104.917 174.538C104.778 174.16 104.563 173.855 104.273 173.622C103.984 173.389 103.614 173.273 103.165 173.273C102.717 173.273 102.347 173.389 102.058 173.622C101.768 173.855 101.553 174.16 101.414 174.538C101.275 174.916 101.205 175.324 101.205 175.761C101.205 176.199 101.275 176.605 101.414 176.98C101.553 177.355 101.768 177.658 102.058 177.888C102.347 178.118 102.717 178.233 103.165 178.233ZM107.667 179V172.455H108.638V173.443H108.706C108.826 173.119 109.042 172.857 109.354 172.655C109.667 172.453 110.019 172.352 110.411 172.352C110.485 172.352 110.577 172.354 110.688 172.357C110.799 172.359 110.882 172.364 110.939 172.369V173.392C110.905 173.384 110.827 173.371 110.705 173.354C110.586 173.334 110.459 173.324 110.326 173.324C110.007 173.324 109.723 173.391 109.473 173.524C109.226 173.655 109.03 173.837 108.885 174.07C108.743 174.3 108.672 174.562 108.672 174.858V179H107.667ZM112.978 181.455C112.808 181.455 112.656 181.44 112.522 181.412C112.389 181.386 112.297 181.361 112.245 181.335L112.501 180.449C112.745 180.511 112.961 180.534 113.149 180.517C113.336 180.5 113.502 180.416 113.647 180.266C113.795 180.118 113.93 179.878 114.052 179.545L114.24 179.034L111.819 172.455H112.91L114.717 177.67H114.785L116.592 172.455H117.683L114.904 179.955C114.779 180.293 114.625 180.572 114.44 180.794C114.255 181.018 114.041 181.185 113.797 181.293C113.555 181.401 113.282 181.455 112.978 181.455ZM119.368 175.318C119.368 174.244 119.507 173.257 119.786 172.357C120.067 171.453 120.468 170.622 120.988 169.864H121.874C121.669 170.145 121.478 170.491 121.299 170.903C121.123 171.312 120.968 171.763 120.834 172.254C120.701 172.743 120.596 173.249 120.519 173.771C120.445 174.294 120.408 174.81 120.408 175.318C120.408 175.994 120.473 176.68 120.604 177.376C120.735 178.072 120.911 178.719 121.132 179.315C121.354 179.912 121.601 180.398 121.874 180.773H120.988C120.468 180.014 120.067 179.185 119.786 178.284C119.507 177.381 119.368 176.392 119.368 175.318ZM125.506 175.318C125.506 176.392 125.365 177.381 125.084 178.284C124.805 179.185 124.406 180.014 123.886 180.773H123C123.205 180.491 123.395 180.145 123.571 179.733C123.75 179.324 123.906 178.875 124.04 178.386C124.173 177.895 124.277 177.388 124.351 176.865C124.428 176.339 124.466 175.824 124.466 175.318C124.466 174.642 124.401 173.956 124.27 173.26C124.139 172.564 123.963 171.918 123.741 171.321C123.52 170.724 123.273 170.239 123 169.864H123.886C124.406 170.622 124.805 171.453 125.084 172.357C125.365 173.257 125.506 174.244 125.506 175.318Z" fill="white"/>
<rect x="44.5" y="206.167" width="103" height="43.3333" rx="7.5" fill="#171717"/>
<rect x="44.5" y="206.167" width="103" height="43.3333" rx="7.5" stroke="#D9D9D9"/>
<path d="M68.3166 227.254L67.4132 227.509C67.3564 227.359 67.2725 227.213 67.1618 227.071C67.0538 226.926 66.9061 226.806 66.7186 226.713C66.5311 226.619 66.291 226.572 65.9984 226.572C65.5978 226.572 65.264 226.664 64.997 226.849C64.7328 227.031 64.6007 227.262 64.6007 227.544C64.6007 227.794 64.6916 227.991 64.8734 228.136C65.0552 228.281 65.3393 228.402 65.7257 228.498L66.6973 228.737C67.2825 228.879 67.7186 229.096 68.0055 229.389C68.2924 229.678 68.4359 230.052 68.4359 230.509C68.4359 230.884 68.3279 231.22 68.112 231.515C67.899 231.811 67.6007 232.044 67.2172 232.214C66.8336 232.384 66.3876 232.47 65.8791 232.47C65.2115 232.47 64.6589 232.325 64.2214 232.035C63.7839 231.745 63.5069 231.322 63.3904 230.765L64.345 230.527C64.4359 230.879 64.6078 231.143 64.8606 231.319C65.1163 231.495 65.4501 231.583 65.862 231.583C66.3308 231.583 66.7029 231.484 66.9785 231.285C67.2569 231.083 67.3961 230.842 67.3961 230.561C67.3961 230.333 67.3166 230.143 67.1575 229.99C66.9984 229.833 66.7541 229.717 66.4245 229.64L65.3336 229.384C64.7342 229.242 64.2939 229.022 64.0126 228.724C63.7342 228.423 63.595 228.046 63.595 227.595C63.595 227.225 63.6987 226.899 63.9061 226.615C64.1163 226.33 64.4018 226.107 64.7626 225.946C65.1262 225.784 65.5382 225.703 65.9984 225.703C66.6461 225.703 67.1547 225.845 67.524 226.129C67.8961 226.413 68.1603 226.788 68.3166 227.254ZM72.6941 232.47C72.0634 232.47 71.5194 232.33 71.062 232.052C70.6074 231.771 70.2566 231.379 70.0094 230.876C69.7651 230.37 69.6429 229.782 69.6429 229.112C69.6429 228.441 69.7651 227.85 70.0094 227.339C70.2566 226.825 70.6003 226.424 71.0407 226.137C71.4838 225.848 72.0009 225.703 72.5918 225.703C72.9327 225.703 73.2694 225.759 73.6017 225.873C73.9341 225.987 74.2367 226.171 74.5094 226.427C74.7821 226.68 74.9995 227.015 75.1614 227.433C75.3233 227.85 75.4043 228.365 75.4043 228.975V229.402H70.3588V228.532H74.3816C74.3816 228.163 74.3077 227.833 74.16 227.544C74.0151 227.254 73.8077 227.025 73.5378 226.857C73.2708 226.69 72.9554 226.606 72.5918 226.606C72.1912 226.606 71.8446 226.705 71.552 226.904C71.2623 227.1 71.0392 227.356 70.883 227.671C70.7267 227.987 70.6486 228.325 70.6486 228.686V229.265C70.6486 229.759 70.7338 230.178 70.9043 230.522C71.0776 230.863 71.3176 231.123 71.6245 231.302C71.9313 231.478 72.2878 231.566 72.6941 231.566C72.9583 231.566 73.1969 231.529 73.41 231.455C73.6259 231.379 73.812 231.265 73.9682 231.115C74.1245 230.961 74.2452 230.771 74.3304 230.544L75.302 230.816C75.1998 231.146 75.0279 231.436 74.7864 231.686C74.5449 231.933 74.2466 232.126 73.8915 232.265C73.5364 232.402 73.1373 232.47 72.6941 232.47ZM77.9398 228.396V232.333H76.9341V225.788H77.9057V226.811H77.9909C78.1444 226.478 78.3773 226.211 78.6898 226.009C79.0023 225.805 79.4057 225.703 79.9 225.703C80.3432 225.703 80.731 225.794 81.0634 225.975C81.3958 226.154 81.6543 226.427 81.839 226.794C82.0236 227.157 82.1159 227.617 82.1159 228.174V232.333H81.1103V228.242C81.1103 227.728 80.9767 227.328 80.7097 227.041C80.4426 226.751 80.0762 226.606 79.6103 226.606C79.2892 226.606 79.0023 226.676 78.7495 226.815C78.4995 226.954 78.302 227.157 78.1571 227.424C78.0123 227.691 77.9398 228.015 77.9398 228.396ZM86.4252 232.47C85.8798 232.47 85.3983 232.332 84.9806 232.056C84.563 231.778 84.2363 231.386 84.0005 230.88C83.7647 230.372 83.6468 229.771 83.6468 229.078C83.6468 228.39 83.7647 227.794 84.0005 227.288C84.2363 226.782 84.5645 226.392 84.9849 226.116C85.4054 225.84 85.8912 225.703 86.4423 225.703C86.8684 225.703 87.2051 225.774 87.4522 225.916C87.7022 226.055 87.8926 226.214 88.0233 226.393C88.1568 226.569 88.2605 226.714 88.3343 226.828H88.4196V223.606H89.4252V232.333H88.4537V231.328H88.3343C88.2605 231.447 88.1554 231.598 88.019 231.779C87.8826 231.958 87.688 232.119 87.4352 232.261C87.1824 232.4 86.8457 232.47 86.4252 232.47ZM86.5616 231.566C86.965 231.566 87.3059 231.461 87.5843 231.251C87.8627 231.038 88.0744 230.744 88.2193 230.369C88.3642 229.991 88.4366 229.555 88.4366 229.061C88.4366 228.572 88.3656 228.144 88.2235 227.778C88.0815 227.409 87.8713 227.122 87.5929 226.917C87.3145 226.71 86.9707 226.606 86.5616 226.606C86.1355 226.606 85.7804 226.715 85.4963 226.934C85.215 227.15 85.0034 227.444 84.8613 227.816C84.7221 228.186 84.6525 228.6 84.6525 229.061C84.6525 229.527 84.7235 229.95 84.8656 230.33C85.0105 230.708 85.2235 231.009 85.5048 231.234C85.7889 231.455 86.1412 231.566 86.5616 231.566ZM91.5431 232.333V223.606H96.8102V224.544H92.6V227.492H96.5375V228.43H92.6V231.396H96.8784V232.333H91.5431ZM98.5787 232.333V225.788H99.5502V226.811H99.6355C99.7718 226.461 99.992 226.19 100.296 225.997C100.6 225.801 100.965 225.703 101.391 225.703C101.823 225.703 102.182 225.801 102.469 225.997C102.759 226.19 102.985 226.461 103.147 226.811H103.215C103.383 226.473 103.634 226.204 103.969 226.005C104.305 225.803 104.706 225.703 105.175 225.703C105.76 225.703 106.239 225.886 106.611 226.252C106.983 226.616 107.17 227.183 107.17 227.953V232.333H106.164V227.953C106.164 227.47 106.032 227.125 105.768 226.917C105.503 226.71 105.192 226.606 104.834 226.606C104.374 226.606 104.018 226.745 103.765 227.024C103.512 227.299 103.385 227.649 103.385 228.072V232.333H102.363V227.85C102.363 227.478 102.242 227.178 102.001 226.951C101.759 226.721 101.448 226.606 101.067 226.606C100.806 226.606 100.562 226.676 100.334 226.815C100.11 226.954 99.9281 227.147 99.7889 227.394C99.6525 227.639 99.5843 227.921 99.5843 228.242V232.333H98.5787ZM110.934 232.487C110.52 232.487 110.143 232.409 109.805 232.252C109.467 232.093 109.199 231.865 109 231.566C108.801 231.265 108.702 230.902 108.702 230.475C108.702 230.1 108.775 229.796 108.923 229.563C109.071 229.328 109.268 229.143 109.515 229.009C109.763 228.876 110.035 228.777 110.334 228.711C110.635 228.643 110.937 228.589 111.241 228.549C111.639 228.498 111.961 228.46 112.209 228.434C112.459 228.406 112.64 228.359 112.754 228.294C112.871 228.228 112.929 228.115 112.929 227.953V227.919C112.929 227.498 112.814 227.171 112.584 226.938C112.356 226.705 112.011 226.589 111.548 226.589C111.068 226.589 110.692 226.694 110.419 226.904C110.146 227.115 109.954 227.339 109.844 227.578L108.889 227.237C109.059 226.839 109.287 226.529 109.571 226.308C109.858 226.083 110.17 225.927 110.508 225.839C110.849 225.748 111.184 225.703 111.514 225.703C111.724 225.703 111.966 225.728 112.238 225.779C112.514 225.828 112.78 225.928 113.035 226.082C113.294 226.235 113.508 226.467 113.679 226.777C113.849 227.086 113.934 227.501 113.934 228.021V232.333H112.929V231.447H112.878C112.809 231.589 112.696 231.741 112.537 231.903C112.378 232.065 112.166 232.203 111.902 232.316C111.638 232.43 111.315 232.487 110.934 232.487ZM111.088 231.583C111.486 231.583 111.821 231.505 112.094 231.349C112.369 231.193 112.577 230.991 112.716 230.744C112.858 230.497 112.929 230.237 112.929 229.964V229.044C112.886 229.095 112.792 229.142 112.648 229.184C112.506 229.224 112.341 229.259 112.153 229.291C111.969 229.319 111.788 229.345 111.612 229.367C111.439 229.387 111.298 229.404 111.19 229.419C110.929 229.453 110.684 229.508 110.457 229.585C110.233 229.659 110.051 229.771 109.912 229.921C109.775 230.069 109.707 230.271 109.707 230.527C109.707 230.876 109.836 231.14 110.095 231.319C110.356 231.495 110.687 231.583 111.088 231.583ZM115.77 232.333V225.788H116.776V232.333H115.77ZM116.281 224.697C116.085 224.697 115.916 224.63 115.774 224.497C115.635 224.363 115.566 224.203 115.566 224.015C115.566 223.828 115.635 223.667 115.774 223.534C115.916 223.4 116.085 223.333 116.281 223.333C116.477 223.333 116.645 223.4 116.784 223.534C116.926 223.667 116.997 223.828 116.997 224.015C116.997 224.203 116.926 224.363 116.784 224.497C116.645 224.63 116.477 224.697 116.281 224.697ZM119.623 223.606V232.333H118.618V223.606H119.623ZM121.823 228.652C121.823 227.578 121.963 226.59 122.241 225.69C122.522 224.786 122.923 223.955 123.443 223.197H124.329C124.124 223.478 123.933 223.825 123.754 224.237C123.578 224.646 123.423 225.096 123.289 225.588C123.156 226.076 123.051 226.582 122.974 227.105C122.9 227.627 122.863 228.143 122.863 228.652C122.863 229.328 122.928 230.014 123.059 230.71C123.19 231.406 123.366 232.052 123.588 232.649C123.809 233.245 124.056 233.731 124.329 234.106H123.443C122.923 233.348 122.522 232.518 122.241 231.617C121.963 230.714 121.823 229.725 121.823 228.652ZM127.961 228.652C127.961 229.725 127.82 230.714 127.539 231.617C127.26 232.518 126.861 233.348 126.341 234.106H125.455C125.66 233.825 125.85 233.478 126.026 233.066C126.205 232.657 126.361 232.208 126.495 231.72C126.628 231.228 126.732 230.721 126.806 230.198C126.883 229.673 126.921 229.157 126.921 228.652C126.921 227.975 126.856 227.289 126.725 226.593C126.594 225.897 126.418 225.251 126.197 224.654C125.975 224.058 125.728 223.572 125.455 223.197H126.341C126.861 223.955 127.26 224.786 127.539 225.69C127.82 226.59 127.961 227.578 127.961 228.652Z" fill="white"/>
<rect x="529.5" y="94.5" width="166" height="112" stroke="#D9D9D9"/>
<path d="M584.232 137.318V147.5H582.999V137.318H584.232ZM594.778 137.318V147.5H593.584L588.036 139.506H587.937V147.5H586.704V137.318H587.897L593.465 145.332H593.564V137.318H594.778ZM605.319 137.318V147.5H604.125L598.577 139.506H598.478V147.5H597.245V137.318H598.438L604.006 145.332H604.105V137.318H605.319ZM614.746 140.5C614.637 140.165 614.492 139.865 614.313 139.6C614.138 139.332 613.927 139.103 613.682 138.914C613.44 138.725 613.165 138.581 612.857 138.482C612.548 138.382 612.21 138.332 611.843 138.332C611.239 138.332 610.691 138.488 610.197 138.8C609.703 139.111 609.31 139.57 609.019 140.177C608.727 140.783 608.581 141.527 608.581 142.409C608.581 143.291 608.729 144.035 609.024 144.641C609.319 145.248 609.718 145.707 610.222 146.018C610.726 146.33 611.292 146.486 611.922 146.486C612.505 146.486 613.019 146.362 613.463 146.113C613.911 145.861 614.259 145.506 614.507 145.049C614.759 144.588 614.885 144.046 614.885 143.423L615.263 143.503H612.2V142.409H616.078V143.503C616.078 144.341 615.899 145.071 615.541 145.69C615.187 146.31 614.696 146.791 614.07 147.132C613.447 147.47 612.731 147.639 611.922 147.639C611.021 147.639 610.228 147.427 609.546 147.003C608.866 146.579 608.336 145.975 607.955 145.193C607.577 144.411 607.388 143.483 607.388 142.409C607.388 141.604 607.496 140.879 607.711 140.237C607.93 139.59 608.238 139.04 608.636 138.586C609.034 138.132 609.504 137.784 610.048 137.542C610.591 137.3 611.19 137.179 611.843 137.179C612.379 137.179 612.88 137.26 613.344 137.423C613.811 137.582 614.227 137.809 614.592 138.104C614.96 138.395 615.266 138.745 615.512 139.153C615.757 139.557 615.926 140.006 616.019 140.5H614.746ZM618.19 147.5V137.318H624.335V138.412H619.423V141.852H624.017V142.946H619.423V146.406H624.414V147.5H618.19ZM632.125 139.864C632.066 139.36 631.824 138.969 631.4 138.69C630.975 138.412 630.455 138.273 629.838 138.273C629.388 138.273 628.993 138.346 628.655 138.491C628.32 138.637 628.059 138.838 627.87 139.093C627.684 139.348 627.591 139.638 627.591 139.963C627.591 140.235 627.656 140.469 627.785 140.664C627.918 140.856 628.087 141.017 628.292 141.146C628.498 141.272 628.713 141.377 628.939 141.46C629.164 141.539 629.371 141.604 629.56 141.653L630.594 141.932C630.859 142.001 631.154 142.098 631.479 142.22C631.807 142.343 632.12 142.51 632.419 142.722C632.72 142.931 632.969 143.2 633.164 143.528C633.36 143.856 633.458 144.259 633.458 144.736C633.458 145.286 633.314 145.783 633.025 146.227C632.74 146.671 632.323 147.024 631.772 147.286C631.225 147.548 630.561 147.679 629.779 147.679C629.05 147.679 628.418 147.561 627.885 147.326C627.354 147.091 626.937 146.763 626.632 146.342C626.33 145.921 626.159 145.432 626.12 144.875H627.392C627.426 145.259 627.555 145.578 627.78 145.83C628.009 146.078 628.297 146.264 628.645 146.386C628.997 146.506 629.374 146.565 629.779 146.565C630.249 146.565 630.672 146.489 631.047 146.337C631.421 146.181 631.718 145.965 631.936 145.69C632.155 145.412 632.265 145.087 632.265 144.716C632.265 144.378 632.17 144.103 631.981 143.891C631.792 143.679 631.544 143.506 631.235 143.374C630.927 143.241 630.594 143.125 630.236 143.026L628.983 142.668C628.188 142.439 627.558 142.112 627.094 141.688C626.63 141.264 626.398 140.709 626.398 140.023C626.398 139.453 626.552 138.955 626.86 138.531C627.172 138.104 627.59 137.772 628.113 137.537C628.64 137.298 629.229 137.179 629.878 137.179C630.534 137.179 631.118 137.297 631.628 137.532C632.139 137.764 632.543 138.082 632.841 138.487C633.143 138.891 633.302 139.35 633.319 139.864H632.125ZM634.928 138.412V137.318H642.564V138.412H639.363V147.5H638.13V138.412H634.928ZM576.258 164.5V154.318H579.699C580.497 154.318 581.15 154.462 581.657 154.751C582.168 155.036 582.546 155.422 582.791 155.909C583.036 156.396 583.159 156.94 583.159 157.54C583.159 158.14 583.036 158.685 582.791 159.175C582.549 159.666 582.175 160.057 581.667 160.349C581.16 160.637 580.511 160.781 579.719 160.781H577.253V159.688H579.679C580.226 159.688 580.665 159.593 580.996 159.404C581.328 159.215 581.568 158.96 581.717 158.638C581.87 158.314 581.946 157.947 581.946 157.54C581.946 157.132 581.87 156.768 581.717 156.446C581.568 156.125 581.326 155.873 580.991 155.69C580.657 155.505 580.212 155.412 579.659 155.412H577.491V164.5H576.258ZM585.145 164.5V154.318H586.378V163.406H591.111V164.5H585.145ZM594.08 164.5H592.788L596.526 154.318H597.799L601.538 164.5H600.245L597.202 155.929H597.123L594.08 164.5ZM594.558 160.523H599.768V161.616H594.558V160.523ZM601.377 155.412V154.318H609.014V155.412H605.812V164.5H604.579V155.412H601.377ZM610.917 164.5V154.318H617.022V155.412H612.15V158.852H616.564V159.946H612.15V164.5H610.917ZM627.724 159.409C627.724 160.483 627.53 161.411 627.143 162.193C626.755 162.975 626.223 163.579 625.547 164.003C624.871 164.427 624.098 164.639 623.23 164.639C622.362 164.639 621.589 164.427 620.913 164.003C620.237 163.579 619.705 162.975 619.317 162.193C618.93 161.411 618.736 160.483 618.736 159.409C618.736 158.335 618.93 157.407 619.317 156.625C619.705 155.843 620.237 155.24 620.913 154.815C621.589 154.391 622.362 154.179 623.23 154.179C624.098 154.179 624.871 154.391 625.547 154.815C626.223 155.24 626.755 155.843 627.143 156.625C627.53 157.407 627.724 158.335 627.724 159.409ZM626.531 159.409C626.531 158.527 626.384 157.783 626.089 157.177C625.797 156.57 625.401 156.111 624.9 155.8C624.403 155.488 623.846 155.332 623.23 155.332C622.613 155.332 622.055 155.488 621.555 155.8C621.057 156.111 620.661 156.57 620.366 157.177C620.075 157.783 619.929 158.527 619.929 159.409C619.929 160.291 620.075 161.035 620.366 161.641C620.661 162.248 621.057 162.707 621.555 163.018C622.055 163.33 622.613 163.486 623.23 163.486C623.846 163.486 624.403 163.33 624.9 163.018C625.401 162.707 625.797 162.248 626.089 161.641C626.384 161.035 626.531 160.291 626.531 159.409ZM629.797 164.5V154.318H633.238C634.033 154.318 634.686 154.454 635.197 154.726C635.707 154.994 636.085 155.364 636.33 155.835C636.575 156.305 636.698 156.84 636.698 157.44C636.698 158.04 636.575 158.572 636.33 159.036C636.085 159.5 635.709 159.865 635.202 160.13C634.694 160.392 634.046 160.523 633.258 160.523H630.474V159.409H633.218C633.761 159.409 634.199 159.33 634.53 159.17C634.865 159.011 635.107 158.786 635.256 158.494C635.409 158.199 635.485 157.848 635.485 157.44C635.485 157.033 635.409 156.676 635.256 156.371C635.104 156.067 634.86 155.831 634.525 155.665C634.191 155.496 633.748 155.412 633.198 155.412H631.03V164.5H629.797ZM634.59 159.926L637.096 164.5H635.664L633.198 159.926H634.59ZM638.752 154.318H640.224L643.684 162.77H643.804L647.264 154.318H648.735V164.5H647.582V156.764H647.483L644.301 164.5H643.187L640.005 156.764H639.906V164.5H638.752V154.318Z" fill="white"/>
<rect x="18.5" y="29.5" width="339" height="244" stroke="#D9D9D9"/>
<rect x="249.5" y="160.5" width="122" height="34" rx="7.5" fill="#171717"/>
<rect x="249.5" y="160.5" width="122" height="34" rx="7.5" stroke="#D9D9D9"/>
<path d="M280.861 172.864L278.049 183.312H277.128L279.941 172.864H280.861ZM283.979 182.153C283.565 182.153 283.188 182.075 282.85 181.919C282.512 181.76 282.244 181.531 282.045 181.233C281.846 180.932 281.746 180.568 281.746 180.142C281.746 179.767 281.82 179.463 281.968 179.23C282.116 178.994 282.313 178.81 282.56 178.676C282.808 178.543 283.08 178.443 283.379 178.378C283.68 178.31 283.982 178.256 284.286 178.216C284.684 178.165 285.006 178.126 285.254 178.101C285.504 178.072 285.685 178.026 285.799 177.96C285.915 177.895 285.974 177.781 285.974 177.619V177.585C285.974 177.165 285.859 176.838 285.629 176.605C285.401 176.372 285.056 176.256 284.593 176.256C284.113 176.256 283.737 176.361 283.464 176.571C283.191 176.781 282.999 177.006 282.888 177.244L281.934 176.903C282.104 176.506 282.332 176.196 282.616 175.974C282.903 175.75 283.215 175.594 283.553 175.506C283.894 175.415 284.229 175.369 284.559 175.369C284.769 175.369 285.011 175.395 285.283 175.446C285.559 175.494 285.825 175.595 286.08 175.749C286.339 175.902 286.553 176.134 286.724 176.443C286.894 176.753 286.979 177.168 286.979 177.688V182H285.974V181.114H285.923C285.854 181.256 285.741 181.408 285.582 181.57C285.423 181.732 285.211 181.869 284.947 181.983C284.683 182.097 284.36 182.153 283.979 182.153ZM284.133 181.25C284.531 181.25 284.866 181.172 285.138 181.016C285.414 180.859 285.621 180.658 285.761 180.411C285.903 180.163 285.974 179.903 285.974 179.631V178.71C285.931 178.761 285.837 178.808 285.692 178.851C285.55 178.891 285.386 178.926 285.198 178.957C285.013 178.986 284.833 179.011 284.657 179.034C284.484 179.054 284.343 179.071 284.235 179.085C283.974 179.119 283.729 179.175 283.502 179.251C283.278 179.325 283.096 179.437 282.957 179.588C282.82 179.736 282.752 179.937 282.752 180.193C282.752 180.543 282.881 180.807 283.14 180.986C283.401 181.162 283.732 181.25 284.133 181.25ZM288.815 184.455V175.455H289.787V176.494H289.906C289.98 176.381 290.082 176.236 290.213 176.06C290.346 175.881 290.537 175.722 290.784 175.582C291.034 175.44 291.372 175.369 291.798 175.369C292.349 175.369 292.835 175.507 293.255 175.783C293.676 176.058 294.004 176.449 294.24 176.955C294.475 177.46 294.593 178.057 294.593 178.744C294.593 179.438 294.475 180.038 294.24 180.547C294.004 181.053 293.677 181.445 293.26 181.723C292.842 181.999 292.36 182.136 291.815 182.136C291.395 182.136 291.058 182.067 290.805 181.928C290.552 181.786 290.358 181.625 290.221 181.446C290.085 181.264 289.98 181.114 289.906 180.994H289.821V184.455H288.815ZM289.804 178.727C289.804 179.222 289.876 179.658 290.021 180.036C290.166 180.411 290.377 180.705 290.656 180.918C290.934 181.128 291.275 181.233 291.679 181.233C292.099 181.233 292.45 181.122 292.731 180.901C293.015 180.676 293.228 180.375 293.37 179.997C293.515 179.616 293.588 179.193 293.588 178.727C293.588 178.267 293.517 177.852 293.375 177.483C293.235 177.111 293.024 176.817 292.74 176.601C292.458 176.382 292.105 176.273 291.679 176.273C291.27 176.273 290.926 176.376 290.647 176.584C290.369 176.788 290.159 177.075 290.017 177.445C289.875 177.811 289.804 178.239 289.804 178.727ZM296.127 182V175.455H297.133V182H296.127ZM296.639 174.364C296.443 174.364 296.274 174.297 296.132 174.163C295.993 174.03 295.923 173.869 295.923 173.682C295.923 173.494 295.993 173.334 296.132 173.2C296.274 173.067 296.443 173 296.639 173C296.835 173 297.002 173.067 297.142 173.2C297.284 173.334 297.355 173.494 297.355 173.682C297.355 173.869 297.284 174.03 297.142 174.163C297.002 174.297 296.835 174.364 296.639 174.364ZM302.06 172.864L299.248 183.312H298.327L301.14 172.864H302.06ZM303.252 182V175.455H304.258V182H303.252ZM303.764 174.364C303.568 174.364 303.399 174.297 303.257 174.163C303.118 174.03 303.048 173.869 303.048 173.682C303.048 173.494 303.118 173.334 303.257 173.2C303.399 173.067 303.568 173 303.764 173C303.96 173 304.127 173.067 304.267 173.2C304.409 173.334 304.48 173.494 304.48 173.682C304.48 173.869 304.409 174.03 304.267 174.163C304.127 174.297 303.96 174.364 303.764 174.364ZM307.106 178.062V182H306.1V175.455H307.072V176.477H307.157C307.31 176.145 307.543 175.878 307.856 175.676C308.168 175.472 308.572 175.369 309.066 175.369C309.509 175.369 309.897 175.46 310.229 175.642C310.562 175.821 310.82 176.094 311.005 176.46C311.19 176.824 311.282 177.284 311.282 177.841V182H310.276V177.909C310.276 177.395 310.143 176.994 309.876 176.707C309.609 176.418 309.242 176.273 308.776 176.273C308.455 176.273 308.168 176.342 307.915 176.482C307.665 176.621 307.468 176.824 307.323 177.091C307.178 177.358 307.106 177.682 307.106 178.062ZM314.125 178.062V182H313.12V175.455H314.091V176.477H314.176C314.33 176.145 314.563 175.878 314.875 175.676C315.188 175.472 315.591 175.369 316.086 175.369C316.529 175.369 316.917 175.46 317.249 175.642C317.581 175.821 317.84 176.094 318.025 176.46C318.209 176.824 318.301 177.284 318.301 177.841V182H317.296V177.909C317.296 177.395 317.162 176.994 316.895 176.707C316.628 176.418 316.262 176.273 315.796 176.273C315.475 176.273 315.188 176.342 314.935 176.482C314.685 176.621 314.488 176.824 314.343 177.091C314.198 177.358 314.125 177.682 314.125 178.062ZM322.781 184.591C322.295 184.591 321.878 184.528 321.528 184.403C321.179 184.281 320.888 184.119 320.655 183.918C320.425 183.719 320.241 183.506 320.105 183.278L320.906 182.716C320.997 182.835 321.112 182.972 321.251 183.125C321.391 183.281 321.581 183.416 321.822 183.53C322.067 183.646 322.386 183.705 322.781 183.705C323.31 183.705 323.746 183.577 324.089 183.321C324.433 183.065 324.605 182.665 324.605 182.119V180.79H324.52C324.446 180.909 324.341 181.057 324.205 181.233C324.071 181.406 323.878 181.561 323.625 181.697C323.375 181.831 323.037 181.898 322.611 181.898C322.082 181.898 321.608 181.773 321.188 181.523C320.77 181.273 320.439 180.909 320.195 180.432C319.953 179.955 319.832 179.375 319.832 178.693C319.832 178.023 319.95 177.439 320.186 176.942C320.422 176.442 320.75 176.055 321.17 175.783C321.591 175.507 322.077 175.369 322.628 175.369C323.054 175.369 323.392 175.44 323.642 175.582C323.895 175.722 324.088 175.881 324.222 176.06C324.358 176.236 324.463 176.381 324.537 176.494H324.639V175.455H325.611V182.188C325.611 182.75 325.483 183.207 325.227 183.56C324.974 183.915 324.634 184.175 324.205 184.339C323.778 184.507 323.304 184.591 322.781 184.591ZM322.747 180.994C323.151 180.994 323.491 180.902 323.77 180.717C324.048 180.533 324.26 180.267 324.405 179.92C324.55 179.574 324.622 179.159 324.622 178.676C324.622 178.205 324.551 177.788 324.409 177.428C324.267 177.067 324.057 176.784 323.778 176.58C323.5 176.375 323.156 176.273 322.747 176.273C322.321 176.273 321.966 176.381 321.682 176.597C321.401 176.812 321.189 177.102 321.047 177.466C320.908 177.83 320.838 178.233 320.838 178.676C320.838 179.131 320.909 179.533 321.051 179.882C321.196 180.229 321.409 180.501 321.69 180.7C321.974 180.896 322.327 180.994 322.747 180.994ZM330.196 182.136C329.565 182.136 329.021 181.997 328.564 181.719C328.109 181.438 327.759 181.045 327.511 180.543C327.267 180.037 327.145 179.449 327.145 178.778C327.145 178.108 327.267 177.517 327.511 177.006C327.759 176.491 328.102 176.091 328.543 175.804C328.986 175.514 329.503 175.369 330.094 175.369C330.435 175.369 330.771 175.426 331.104 175.54C331.436 175.653 331.739 175.838 332.011 176.094C332.284 176.347 332.501 176.682 332.663 177.099C332.825 177.517 332.906 178.031 332.906 178.642V179.068H327.861V178.199H331.884C331.884 177.83 331.81 177.5 331.662 177.21C331.517 176.92 331.31 176.692 331.04 176.524C330.773 176.357 330.457 176.273 330.094 176.273C329.693 176.273 329.347 176.372 329.054 176.571C328.764 176.767 328.541 177.023 328.385 177.338C328.229 177.653 328.151 177.991 328.151 178.352V178.932C328.151 179.426 328.236 179.845 328.406 180.189C328.58 180.53 328.82 180.79 329.126 180.969C329.433 181.145 329.79 181.233 330.196 181.233C330.46 181.233 330.699 181.196 330.912 181.122C331.128 181.045 331.314 180.932 331.47 180.781C331.626 180.628 331.747 180.437 331.832 180.21L332.804 180.483C332.702 180.812 332.53 181.102 332.288 181.352C332.047 181.599 331.749 181.793 331.393 181.932C331.038 182.068 330.639 182.136 330.196 182.136ZM339.072 176.92L338.169 177.176C338.112 177.026 338.028 176.879 337.918 176.737C337.81 176.592 337.662 176.473 337.474 176.379C337.287 176.286 337.047 176.239 336.754 176.239C336.354 176.239 336.02 176.331 335.753 176.516C335.489 176.697 335.357 176.929 335.357 177.21C335.357 177.46 335.447 177.658 335.629 177.803C335.811 177.947 336.095 178.068 336.482 178.165L337.453 178.403C338.038 178.545 338.474 178.763 338.761 179.055C339.048 179.345 339.192 179.719 339.192 180.176C339.192 180.551 339.084 180.886 338.868 181.182C338.655 181.477 338.357 181.71 337.973 181.881C337.589 182.051 337.143 182.136 336.635 182.136C335.967 182.136 335.415 181.991 334.977 181.702C334.54 181.412 334.263 180.989 334.146 180.432L335.101 180.193C335.192 180.545 335.364 180.81 335.616 180.986C335.872 181.162 336.206 181.25 336.618 181.25C337.087 181.25 337.459 181.151 337.734 180.952C338.013 180.75 338.152 180.509 338.152 180.227C338.152 180 338.072 179.81 337.913 179.656C337.754 179.5 337.51 179.384 337.18 179.307L336.089 179.051C335.49 178.909 335.05 178.689 334.768 178.391C334.49 178.089 334.351 177.713 334.351 177.261C334.351 176.892 334.455 176.565 334.662 176.281C334.872 175.997 335.158 175.774 335.518 175.612C335.882 175.45 336.294 175.369 336.754 175.369C337.402 175.369 337.911 175.511 338.28 175.795C338.652 176.08 338.916 176.455 339.072 176.92ZM343.552 175.455V176.307H340.16V175.455H343.552ZM341.149 173.886H342.154V180.125C342.154 180.409 342.196 180.622 342.278 180.764C342.363 180.903 342.471 180.997 342.602 181.045C342.735 181.091 342.876 181.114 343.024 181.114C343.135 181.114 343.225 181.108 343.297 181.097C343.368 181.082 343.424 181.071 343.467 181.062L343.672 181.966C343.603 181.991 343.508 182.017 343.386 182.043C343.264 182.071 343.109 182.085 342.922 182.085C342.637 182.085 342.359 182.024 342.086 181.902C341.816 181.78 341.592 181.594 341.413 181.344C341.237 181.094 341.149 180.778 341.149 180.398V173.886Z" fill="white"/>
<rect x="249.5" y="102.5" width="122" height="34" rx="7.5" fill="#171717"/>
<rect x="249.5" y="102.5" width="122" height="34" rx="7.5" stroke="#D9D9D9"/>
<path d="M275.588 114.864L272.775 125.312H271.855L274.667 114.864H275.588ZM278.706 124.153C278.291 124.153 277.915 124.075 277.577 123.919C277.239 123.76 276.97 123.531 276.771 123.233C276.572 122.932 276.473 122.568 276.473 122.142C276.473 121.767 276.547 121.463 276.695 121.23C276.842 120.994 277.04 120.81 277.287 120.676C277.534 120.543 277.807 120.443 278.105 120.378C278.406 120.31 278.709 120.256 279.013 120.216C279.411 120.165 279.733 120.126 279.98 120.101C280.23 120.072 280.412 120.026 280.526 119.96C280.642 119.895 280.7 119.781 280.7 119.619V119.585C280.7 119.165 280.585 118.838 280.355 118.605C280.128 118.372 279.783 118.256 279.32 118.256C278.839 118.256 278.463 118.361 278.19 118.571C277.918 118.781 277.726 119.006 277.615 119.244L276.661 118.903C276.831 118.506 277.058 118.196 277.342 117.974C277.629 117.75 277.942 117.594 278.28 117.506C278.621 117.415 278.956 117.369 279.286 117.369C279.496 117.369 279.737 117.395 280.01 117.446C280.286 117.494 280.551 117.595 280.807 117.749C281.065 117.902 281.28 118.134 281.45 118.443C281.621 118.753 281.706 119.168 281.706 119.688V124H280.7V123.114H280.649C280.581 123.256 280.467 123.408 280.308 123.57C280.149 123.732 279.938 123.869 279.673 123.983C279.409 124.097 279.087 124.153 278.706 124.153ZM278.859 123.25C279.257 123.25 279.592 123.172 279.865 123.016C280.141 122.859 280.348 122.658 280.487 122.411C280.629 122.163 280.7 121.903 280.7 121.631V120.71C280.658 120.761 280.564 120.808 280.419 120.851C280.277 120.891 280.112 120.926 279.925 120.957C279.74 120.986 279.56 121.011 279.384 121.034C279.21 121.054 279.07 121.071 278.962 121.085C278.7 121.119 278.456 121.175 278.229 121.251C278.004 121.325 277.822 121.437 277.683 121.588C277.547 121.736 277.479 121.937 277.479 122.193C277.479 122.543 277.608 122.807 277.866 122.986C278.128 123.162 278.459 123.25 278.859 123.25ZM283.542 126.455V117.455H284.513V118.494H284.632C284.706 118.381 284.809 118.236 284.939 118.06C285.073 117.881 285.263 117.722 285.51 117.582C285.76 117.44 286.098 117.369 286.525 117.369C287.076 117.369 287.561 117.507 287.982 117.783C288.402 118.058 288.73 118.449 288.966 118.955C289.202 119.46 289.32 120.057 289.32 120.744C289.32 121.438 289.202 122.038 288.966 122.547C288.73 123.053 288.404 123.445 287.986 123.723C287.569 123.999 287.087 124.136 286.542 124.136C286.121 124.136 285.784 124.067 285.532 123.928C285.279 123.786 285.084 123.625 284.948 123.446C284.811 123.264 284.706 123.114 284.632 122.994H284.547V126.455H283.542ZM284.53 120.727C284.53 121.222 284.603 121.658 284.748 122.036C284.892 122.411 285.104 122.705 285.382 122.918C285.661 123.128 286.002 123.233 286.405 123.233C286.826 123.233 287.176 123.122 287.458 122.901C287.742 122.676 287.955 122.375 288.097 121.997C288.242 121.616 288.314 121.193 288.314 120.727C288.314 120.267 288.243 119.852 288.101 119.483C287.962 119.111 287.75 118.817 287.466 118.601C287.185 118.382 286.831 118.273 286.405 118.273C285.996 118.273 285.652 118.376 285.374 118.584C285.096 118.788 284.885 119.075 284.743 119.445C284.601 119.811 284.53 120.239 284.53 120.727ZM290.854 124V117.455H291.86V124H290.854ZM291.365 116.364C291.169 116.364 291 116.297 290.858 116.163C290.719 116.03 290.65 115.869 290.65 115.682C290.65 115.494 290.719 115.334 290.858 115.2C291 115.067 291.169 115 291.365 115C291.561 115 291.729 115.067 291.868 115.2C292.01 115.334 292.081 115.494 292.081 115.682C292.081 115.869 292.01 116.03 291.868 116.163C291.729 116.297 291.561 116.364 291.365 116.364ZM296.787 114.864L293.974 125.312H293.054L295.866 114.864H296.787ZM297.979 126.455V117.455H298.951V118.494H299.07C299.144 118.381 299.246 118.236 299.377 118.06C299.51 117.881 299.701 117.722 299.948 117.582C300.198 117.44 300.536 117.369 300.962 117.369C301.513 117.369 301.999 117.507 302.419 117.783C302.84 118.058 303.168 118.449 303.404 118.955C303.64 119.46 303.757 120.057 303.757 120.744C303.757 121.438 303.64 122.038 303.404 122.547C303.168 123.053 302.841 123.445 302.424 123.723C302.006 123.999 301.525 124.136 300.979 124.136C300.559 124.136 300.222 124.067 299.969 123.928C299.716 123.786 299.522 123.625 299.385 123.446C299.249 123.264 299.144 123.114 299.07 122.994H298.985V126.455H297.979ZM298.968 120.727C298.968 121.222 299.04 121.658 299.185 122.036C299.33 122.411 299.542 122.705 299.82 122.918C300.098 123.128 300.439 123.233 300.843 123.233C301.263 123.233 301.614 123.122 301.895 122.901C302.179 122.676 302.392 122.375 302.534 121.997C302.679 121.616 302.752 121.193 302.752 120.727C302.752 120.267 302.681 119.852 302.539 119.483C302.4 119.111 302.188 118.817 301.904 118.601C301.623 118.382 301.269 118.273 300.843 118.273C300.434 118.273 300.09 118.376 299.811 118.584C299.533 118.788 299.323 119.075 299.181 119.445C299.039 119.811 298.968 120.239 298.968 120.727ZM309.417 121.324V117.455H310.422V124H309.417V122.892H309.348C309.195 123.224 308.956 123.507 308.632 123.74C308.309 123.97 307.9 124.085 307.405 124.085C306.996 124.085 306.632 123.996 306.314 123.817C305.996 123.635 305.746 123.362 305.564 122.999C305.382 122.632 305.292 122.17 305.292 121.614V117.455H306.297V121.545C306.297 122.023 306.431 122.403 306.698 122.688C306.968 122.972 307.311 123.114 307.729 123.114C307.979 123.114 308.233 123.05 308.492 122.922C308.753 122.794 308.972 122.598 309.148 122.334C309.327 122.07 309.417 121.733 309.417 121.324ZM312.264 124V117.455H313.236V118.443H313.304C313.423 118.119 313.639 117.857 313.952 117.655C314.264 117.453 314.616 117.352 315.009 117.352C315.082 117.352 315.175 117.354 315.286 117.357C315.396 117.359 315.48 117.364 315.537 117.369V118.392C315.503 118.384 315.425 118.371 315.303 118.354C315.183 118.334 315.057 118.324 314.923 118.324C314.605 118.324 314.321 118.391 314.071 118.524C313.824 118.655 313.628 118.837 313.483 119.07C313.341 119.3 313.27 119.562 313.27 119.858V124H312.264ZM319.189 124.136C318.575 124.136 318.047 123.991 317.604 123.702C317.161 123.412 316.82 123.013 316.581 122.504C316.342 121.996 316.223 121.415 316.223 120.761C316.223 120.097 316.345 119.51 316.589 119.001C316.837 118.49 317.18 118.091 317.621 117.804C318.064 117.514 318.581 117.369 319.172 117.369C319.632 117.369 320.047 117.455 320.416 117.625C320.786 117.795 321.088 118.034 321.324 118.341C321.56 118.648 321.706 119.006 321.763 119.415H320.757C320.68 119.116 320.51 118.852 320.246 118.622C319.984 118.389 319.632 118.273 319.189 118.273C318.797 118.273 318.453 118.375 318.158 118.58C317.865 118.781 317.636 119.067 317.472 119.436C317.31 119.803 317.229 120.233 317.229 120.727C317.229 121.233 317.308 121.673 317.467 122.048C317.629 122.423 317.857 122.714 318.149 122.922C318.445 123.129 318.791 123.233 319.189 123.233C319.45 123.233 319.688 123.188 319.901 123.097C320.114 123.006 320.294 122.875 320.442 122.705C320.589 122.534 320.695 122.33 320.757 122.091H321.763C321.706 122.477 321.565 122.825 321.341 123.135C321.119 123.442 320.825 123.686 320.459 123.868C320.095 124.047 319.672 124.136 319.189 124.136ZM324.239 120.062V124H323.233V115.273H324.239V118.477H324.324C324.477 118.139 324.707 117.871 325.014 117.672C325.324 117.47 325.736 117.369 326.25 117.369C326.696 117.369 327.087 117.459 327.422 117.638C327.757 117.814 328.017 118.085 328.202 118.452C328.389 118.815 328.483 119.278 328.483 119.841V124H327.477V119.909C327.477 119.389 327.342 118.987 327.072 118.703C326.805 118.416 326.435 118.273 325.96 118.273C325.631 118.273 325.335 118.342 325.074 118.482C324.815 118.621 324.611 118.824 324.46 119.091C324.313 119.358 324.239 119.682 324.239 120.062ZM332.249 124.153C331.834 124.153 331.458 124.075 331.12 123.919C330.782 123.76 330.513 123.531 330.314 123.233C330.115 122.932 330.016 122.568 330.016 122.142C330.016 121.767 330.09 121.463 330.238 121.23C330.385 120.994 330.583 120.81 330.83 120.676C331.077 120.543 331.35 120.443 331.648 120.378C331.949 120.31 332.252 120.256 332.556 120.216C332.953 120.165 333.276 120.126 333.523 120.101C333.773 120.072 333.955 120.026 334.069 119.96C334.185 119.895 334.243 119.781 334.243 119.619V119.585C334.243 119.165 334.128 118.838 333.898 118.605C333.671 118.372 333.326 118.256 332.863 118.256C332.382 118.256 332.006 118.361 331.733 118.571C331.461 118.781 331.269 119.006 331.158 119.244L330.203 118.903C330.374 118.506 330.601 118.196 330.885 117.974C331.172 117.75 331.485 117.594 331.823 117.506C332.164 117.415 332.499 117.369 332.828 117.369C333.039 117.369 333.28 117.395 333.553 117.446C333.828 117.494 334.094 117.595 334.35 117.749C334.608 117.902 334.823 118.134 334.993 118.443C335.164 118.753 335.249 119.168 335.249 119.688V124H334.243V123.114H334.192C334.124 123.256 334.01 123.408 333.851 123.57C333.692 123.732 333.48 123.869 333.216 123.983C332.952 124.097 332.63 124.153 332.249 124.153ZM332.402 123.25C332.8 123.25 333.135 123.172 333.408 123.016C333.684 122.859 333.891 122.658 334.03 122.411C334.172 122.163 334.243 121.903 334.243 121.631V120.71C334.201 120.761 334.107 120.808 333.962 120.851C333.82 120.891 333.655 120.926 333.468 120.957C333.283 120.986 333.103 121.011 332.926 121.034C332.753 121.054 332.613 121.071 332.505 121.085C332.243 121.119 331.999 121.175 331.772 121.251C331.547 121.325 331.365 121.437 331.226 121.588C331.09 121.736 331.022 121.937 331.022 122.193C331.022 122.543 331.151 122.807 331.409 122.986C331.671 123.162 332.002 123.25 332.402 123.25ZM341.721 118.92L340.817 119.176C340.761 119.026 340.677 118.879 340.566 118.737C340.458 118.592 340.31 118.473 340.123 118.379C339.935 118.286 339.695 118.239 339.403 118.239C339.002 118.239 338.668 118.331 338.401 118.516C338.137 118.697 338.005 118.929 338.005 119.21C338.005 119.46 338.096 119.658 338.278 119.803C338.46 119.947 338.744 120.068 339.13 120.165L340.102 120.403C340.687 120.545 341.123 120.763 341.41 121.055C341.697 121.345 341.84 121.719 341.84 122.176C341.84 122.551 341.732 122.886 341.516 123.182C341.303 123.477 341.005 123.71 340.621 123.881C340.238 124.051 339.792 124.136 339.283 124.136C338.616 124.136 338.063 123.991 337.626 123.702C337.188 123.412 336.911 122.989 336.795 122.432L337.749 122.193C337.84 122.545 338.012 122.81 338.265 122.986C338.521 123.162 338.854 123.25 339.266 123.25C339.735 123.25 340.107 123.151 340.383 122.952C340.661 122.75 340.8 122.509 340.8 122.227C340.8 122 340.721 121.81 340.562 121.656C340.403 121.5 340.158 121.384 339.829 121.307L338.738 121.051C338.138 120.909 337.698 120.689 337.417 120.391C337.138 120.089 336.999 119.713 336.999 119.261C336.999 118.892 337.103 118.565 337.31 118.281C337.521 117.997 337.806 117.774 338.167 117.612C338.531 117.45 338.942 117.369 339.403 117.369C340.05 117.369 340.559 117.511 340.928 117.795C341.3 118.08 341.565 118.455 341.721 118.92ZM346.098 124.136C345.468 124.136 344.924 123.997 344.466 123.719C344.012 123.438 343.661 123.045 343.414 122.543C343.169 122.037 343.047 121.449 343.047 120.778C343.047 120.108 343.169 119.517 343.414 119.006C343.661 118.491 344.005 118.091 344.445 117.804C344.888 117.514 345.405 117.369 345.996 117.369C346.337 117.369 346.674 117.426 347.006 117.54C347.338 117.653 347.641 117.838 347.914 118.094C348.186 118.347 348.404 118.682 348.566 119.099C348.728 119.517 348.809 120.031 348.809 120.642V121.068H343.763V120.199H347.786C347.786 119.83 347.712 119.5 347.564 119.21C347.419 118.92 347.212 118.692 346.942 118.524C346.675 118.357 346.36 118.273 345.996 118.273C345.596 118.273 345.249 118.372 344.956 118.571C344.667 118.767 344.444 119.023 344.287 119.338C344.131 119.653 344.053 119.991 344.053 120.352V120.932C344.053 121.426 344.138 121.845 344.309 122.189C344.482 122.53 344.722 122.79 345.029 122.969C345.336 123.145 345.692 123.233 346.098 123.233C346.363 123.233 346.601 123.196 346.814 123.122C347.03 123.045 347.216 122.932 347.373 122.781C347.529 122.628 347.65 122.437 347.735 122.21L348.706 122.483C348.604 122.812 348.432 123.102 348.191 123.352C347.949 123.599 347.651 123.793 347.296 123.932C346.941 124.068 346.542 124.136 346.098 124.136Z" fill="white"/>
<path d="M180.889 49H179.596L183.335 38.8182H184.608L188.346 49H187.054L184.011 40.429H183.931L180.889 49ZM181.366 45.0227H186.576V46.1165H181.366V45.0227ZM189.773 51.8636V41.3636H190.907V42.5767H191.046C191.132 42.4441 191.251 42.2751 191.404 42.0696C191.56 41.8608 191.782 41.6752 192.07 41.5128C192.362 41.3471 192.756 41.2642 193.253 41.2642C193.896 41.2642 194.463 41.425 194.953 41.7464C195.444 42.0679 195.827 42.5237 196.102 43.1136C196.377 43.7036 196.515 44.3996 196.515 45.2017C196.515 46.0104 196.377 46.7114 196.102 47.3047C195.827 47.8946 195.446 48.352 194.958 48.6768C194.471 48.9983 193.909 49.1591 193.273 49.1591C192.783 49.1591 192.39 49.0779 192.095 48.9155C191.8 48.7498 191.573 48.5625 191.414 48.3537C191.255 48.1416 191.132 47.9659 191.046 47.8267H190.946V51.8636H189.773ZM190.926 45.1818C190.926 45.7585 191.011 46.2673 191.18 46.7081C191.349 47.1456 191.596 47.4886 191.921 47.7372C192.246 47.9825 192.643 48.1051 193.114 48.1051C193.605 48.1051 194.014 47.9759 194.342 47.7173C194.673 47.4555 194.922 47.1042 195.088 46.6634C195.257 46.2192 195.341 45.7254 195.341 45.1818C195.341 44.6449 195.258 44.161 195.093 43.7301C194.93 43.2959 194.683 42.9529 194.352 42.701C194.024 42.4458 193.611 42.3182 193.114 42.3182C192.637 42.3182 192.236 42.4392 191.911 42.6811C191.586 42.9197 191.341 43.2545 191.175 43.6854C191.009 44.1129 190.926 44.6117 190.926 45.1818ZM198.304 51.8636V41.3636H199.438V42.5767H199.577C199.663 42.4441 199.783 42.2751 199.935 42.0696C200.091 41.8608 200.313 41.6752 200.601 41.5128C200.893 41.3471 201.287 41.2642 201.784 41.2642C202.427 41.2642 202.994 41.425 203.485 41.7464C203.975 42.0679 204.358 42.5237 204.633 43.1136C204.908 43.7036 205.046 44.3996 205.046 45.2017C205.046 46.0104 204.908 46.7114 204.633 47.3047C204.358 47.8946 203.977 48.352 203.49 48.6768C203.002 48.9983 202.441 49.1591 201.804 49.1591C201.314 49.1591 200.921 49.0779 200.626 48.9155C200.331 48.7498 200.104 48.5625 199.945 48.3537C199.786 48.1416 199.663 47.9659 199.577 47.8267H199.478V51.8636H198.304ZM199.458 45.1818C199.458 45.7585 199.542 46.2673 199.711 46.7081C199.88 47.1456 200.127 47.4886 200.452 47.7372C200.777 47.9825 201.175 48.1051 201.645 48.1051C202.136 48.1051 202.545 47.9759 202.873 47.7173C203.205 47.4555 203.453 47.1042 203.619 46.6634C203.788 46.2192 203.873 45.7254 203.873 45.1818C203.873 44.6449 203.79 44.161 203.624 43.7301C203.462 43.2959 203.215 42.9529 202.883 42.701C202.555 42.4458 202.142 42.3182 201.645 42.3182C201.168 42.3182 200.767 42.4392 200.442 42.6811C200.117 42.9197 199.872 43.2545 199.706 43.6854C199.541 44.1129 199.458 44.6117 199.458 45.1818Z" fill="white"/>
<path d="M390.255 114.136C389.627 114.136 389.108 113.997 388.699 113.719C388.29 113.438 388.005 113.045 387.843 112.543C387.681 112.037 387.655 111.449 387.766 110.778C387.877 110.108 388.097 109.517 388.426 109.006C388.756 108.491 389.167 108.091 389.658 107.804C390.15 107.514 390.689 107.369 391.277 107.369C391.618 107.369 391.946 107.426 392.262 107.54C392.577 107.653 392.85 107.838 393.08 108.094C393.31 108.347 393.471 108.682 393.561 109.099C393.652 109.517 393.647 110.031 393.544 110.642L393.476 111.068H388.431L388.567 110.199H392.59C392.655 109.83 392.638 109.5 392.539 109.21C392.442 108.92 392.273 108.692 392.032 108.524C391.793 108.357 391.49 108.273 391.124 108.273C390.746 108.273 390.394 108.375 390.067 108.58C389.74 108.781 389.468 109.037 389.249 109.347C389.03 109.653 388.894 109.966 388.84 110.284L388.721 111.034C388.635 111.577 388.648 112.009 388.759 112.33C388.873 112.651 389.07 112.882 389.351 113.024C389.632 113.163 389.985 113.233 390.408 113.233C390.678 113.233 390.926 113.196 391.154 113.122C391.381 113.045 391.584 112.932 391.763 112.781C391.942 112.628 392.093 112.437 392.215 112.21L393.135 112.483C392.979 112.812 392.759 113.102 392.475 113.352C392.194 113.599 391.864 113.793 391.486 113.932C391.111 114.068 390.701 114.136 390.255 114.136ZM400.779 107.455L397.268 114H396.245L394.915 107.455H395.964L396.901 112.67H396.969L399.646 107.455H400.779ZM403.509 114.136C402.881 114.136 402.362 113.997 401.953 113.719C401.544 113.438 401.259 113.045 401.097 112.543C400.935 112.037 400.909 111.449 401.02 110.778C401.131 110.108 401.351 109.517 401.68 109.006C402.01 108.491 402.42 108.091 402.912 107.804C403.403 107.514 403.943 107.369 404.531 107.369C404.872 107.369 405.2 107.426 405.516 107.54C405.831 107.653 406.104 107.838 406.334 108.094C406.564 108.347 406.724 108.682 406.815 109.099C406.906 109.517 406.901 110.031 406.798 110.642L406.73 111.068H401.685L401.821 110.199H405.844C405.909 109.83 405.892 109.5 405.793 109.21C405.696 108.92 405.527 108.692 405.286 108.524C405.047 108.357 404.744 108.273 404.378 108.273C404 108.273 403.648 108.375 403.321 108.58C402.994 108.781 402.722 109.037 402.503 109.347C402.284 109.653 402.148 109.966 402.094 110.284L401.974 111.034C401.889 111.577 401.902 112.009 402.013 112.33C402.126 112.651 402.324 112.882 402.605 113.024C402.886 113.163 403.239 113.233 403.662 113.233C403.932 113.233 404.18 113.196 404.408 113.122C404.635 113.045 404.838 112.932 405.017 112.781C405.196 112.628 405.347 112.437 405.469 112.21L406.389 112.483C406.233 112.812 406.013 113.102 405.729 113.352C405.447 113.599 405.118 113.793 404.74 113.932C404.365 114.068 403.955 114.136 403.509 114.136ZM409.442 110.062L408.795 114H407.789L408.88 107.455H409.852L409.681 108.477H409.766C409.971 108.145 410.248 107.878 410.597 107.676C410.947 107.472 411.369 107.369 411.863 107.369C412.3 107.369 412.67 107.46 412.971 107.642C413.275 107.821 413.489 108.094 413.614 108.46C413.742 108.824 413.761 109.284 413.67 109.841L412.971 114H411.965L412.647 109.909C412.732 109.398 412.665 108.997 412.447 108.707C412.231 108.418 411.888 108.273 411.42 108.273C411.096 108.273 410.796 108.342 410.521 108.482C410.248 108.621 410.016 108.824 409.826 109.091C409.638 109.358 409.511 109.682 409.442 110.062ZM418.746 107.455L418.61 108.307H415.218L415.354 107.455H418.746ZM416.598 105.886H417.604L416.564 112.125C416.519 112.409 416.526 112.622 416.586 112.764C416.648 112.903 416.742 112.997 416.867 113.045C416.995 113.091 417.132 113.114 417.28 113.114C417.391 113.114 417.482 113.108 417.553 113.097C417.624 113.082 417.681 113.071 417.723 113.062L417.792 113.966C417.715 113.991 417.611 114.017 417.48 114.043C417.353 114.071 417.195 114.085 417.007 114.085C416.723 114.085 416.456 114.024 416.206 113.902C415.956 113.78 415.765 113.594 415.631 113.344C415.498 113.094 415.462 112.778 415.525 112.398L416.598 105.886ZM420.02 114.068C419.804 114.068 419.624 113.994 419.479 113.847C419.334 113.696 419.259 113.514 419.253 113.301C419.25 113.088 419.326 112.911 419.479 112.768C419.632 112.624 419.813 112.551 420.02 112.551C420.23 112.551 420.412 112.625 420.566 112.773C420.719 112.92 420.793 113.097 420.787 113.301C420.784 113.443 420.748 113.572 420.676 113.689C420.608 113.805 420.516 113.898 420.4 113.966C420.286 114.034 420.159 114.068 420.02 114.068ZM420.821 109.21C420.605 109.21 420.425 109.136 420.28 108.989C420.135 108.838 420.06 108.656 420.054 108.443C420.051 108.23 420.127 108.053 420.28 107.911C420.434 107.766 420.614 107.693 420.821 107.693C421.032 107.693 421.213 107.767 421.367 107.915C421.52 108.062 421.594 108.239 421.588 108.443C421.586 108.585 421.549 108.714 421.478 108.831C421.409 108.947 421.317 109.04 421.201 109.108C421.087 109.176 420.961 109.21 420.821 109.21ZM425.439 116.455L426.947 107.455H427.919L427.748 108.494H427.868C427.958 108.381 428.083 108.236 428.243 108.06C428.404 107.881 428.622 107.722 428.895 107.582C429.17 107.44 429.521 107.369 429.947 107.369C430.498 107.369 430.96 107.507 431.332 107.783C431.704 108.058 431.967 108.449 432.12 108.955C432.274 109.46 432.294 110.057 432.18 110.744C432.066 111.438 431.849 112.038 431.528 112.547C431.207 113.053 430.815 113.445 430.352 113.723C429.889 113.999 429.385 114.136 428.839 114.136C428.419 114.136 428.093 114.067 427.863 113.928C427.633 113.786 427.466 113.625 427.36 113.446C427.255 113.264 427.174 113.114 427.118 112.994H427.032L426.453 116.455H425.439ZM427.39 110.727C427.311 111.222 427.311 111.658 427.39 112.036C427.473 112.411 427.636 112.705 427.88 112.918C428.127 113.128 428.453 113.233 428.856 113.233C429.277 113.233 429.645 113.122 429.96 112.901C430.278 112.676 430.539 112.375 430.744 111.997C430.951 111.616 431.095 111.193 431.174 110.727C431.248 110.267 431.245 109.852 431.166 109.483C431.086 109.111 430.924 108.817 430.68 108.601C430.436 108.382 430.1 108.273 429.674 108.273C429.265 108.273 428.903 108.376 428.588 108.584C428.275 108.788 428.017 109.075 427.812 109.445C427.61 109.811 427.47 110.239 427.39 110.727ZM437.74 111.324L438.388 107.455H439.393L438.303 114H437.297L437.484 112.892H437.416C437.212 113.224 436.926 113.507 436.56 113.74C436.193 113.97 435.763 114.085 435.268 114.085C434.859 114.085 434.51 113.996 434.22 113.817C433.933 113.635 433.729 113.362 433.607 112.999C433.487 112.632 433.473 112.17 433.564 111.614L434.263 107.455H435.268L434.587 111.545C434.51 112.023 434.582 112.403 434.804 112.688C435.026 112.972 435.345 113.114 435.763 113.114C436.013 113.114 436.277 113.05 436.555 112.922C436.837 112.794 437.087 112.598 437.305 112.334C437.527 112.07 437.672 111.733 437.74 111.324ZM440.145 114L441.235 107.455H442.207L442.037 108.443H442.105C442.275 108.119 442.535 107.857 442.885 107.655C443.234 107.453 443.605 107.352 443.997 107.352C444.074 107.352 444.166 107.354 444.274 107.357C444.382 107.357 444.466 107.361 444.525 107.369L444.355 108.392C444.321 108.384 444.244 108.371 444.125 108.354C444.005 108.334 443.877 108.324 443.741 108.324C443.423 108.324 443.129 108.391 442.859 108.524C442.589 108.655 442.363 108.837 442.181 109.07C442 109.3 441.883 109.562 441.832 109.858L441.15 114H440.145ZM447.076 114.136C446.459 114.136 445.953 113.991 445.559 113.702C445.167 113.412 444.894 113.013 444.74 112.504C444.587 111.996 444.564 111.415 444.672 110.761C444.78 110.097 444.999 109.51 445.328 109.001C445.658 108.49 446.069 108.091 446.56 107.804C447.051 107.514 447.593 107.369 448.184 107.369C448.644 107.369 449.044 107.455 449.385 107.625C449.726 107.795 449.989 108.034 450.174 108.341C450.358 108.648 450.445 109.006 450.434 109.415H449.428C449.4 109.116 449.272 108.852 449.044 108.622C448.82 108.389 448.488 108.273 448.047 108.273C447.655 108.273 447.294 108.375 446.965 108.58C446.635 108.781 446.358 109.067 446.134 109.436C445.909 109.803 445.757 110.233 445.678 110.727C445.593 111.233 445.6 111.673 445.699 112.048C445.799 112.423 445.979 112.714 446.24 112.922C446.502 113.129 446.831 113.233 447.229 113.233C447.49 113.233 447.735 113.188 447.962 113.097C448.189 113.006 448.391 112.875 448.567 112.705C448.743 112.534 448.882 112.33 448.985 112.091H449.99C449.865 112.477 449.665 112.825 449.39 113.135C449.114 113.442 448.78 113.686 448.388 113.868C447.996 114.047 447.559 114.136 447.076 114.136ZM452.79 110.062L452.142 114H451.137L452.586 105.273H453.591L453.063 108.477H453.148C453.353 108.136 453.625 107.866 453.966 107.668C454.31 107.469 454.742 107.369 455.262 107.369C455.705 107.369 456.078 107.459 456.382 107.638C456.689 107.814 456.905 108.085 457.03 108.452C457.158 108.815 457.176 109.278 457.086 109.841L456.387 114H455.381L456.063 109.909C456.148 109.389 456.078 108.987 455.854 108.703C455.632 108.416 455.287 108.273 454.819 108.273C454.489 108.273 454.182 108.342 453.898 108.482C453.617 108.621 453.378 108.824 453.182 109.091C452.989 109.358 452.858 109.682 452.79 110.062ZM460.136 114.153C459.721 114.153 459.357 114.075 459.045 113.919C458.732 113.76 458.501 113.531 458.35 113.233C458.2 112.932 458.158 112.568 458.227 112.142C458.292 111.767 458.418 111.463 458.606 111.23C458.793 110.994 459.021 110.81 459.288 110.676C459.558 110.54 459.847 110.439 460.157 110.374C460.469 110.305 460.781 110.253 461.09 110.216C461.494 110.165 461.822 110.125 462.075 110.097C462.327 110.068 462.518 110.021 462.646 109.956C462.773 109.891 462.852 109.778 462.88 109.619V109.585C462.948 109.168 462.893 108.842 462.714 108.609C462.535 108.374 462.215 108.256 461.755 108.256C461.278 108.256 460.879 108.361 460.558 108.571C460.237 108.781 459.999 109.006 459.846 109.244L458.96 108.903C459.192 108.506 459.471 108.196 459.795 107.974C460.119 107.75 460.458 107.594 460.813 107.506C461.168 107.415 461.511 107.369 461.84 107.369C462.05 107.369 462.288 107.395 462.552 107.446C462.816 107.494 463.063 107.595 463.293 107.749C463.526 107.902 463.701 108.134 463.817 108.443C463.937 108.753 463.954 109.168 463.869 109.688L463.153 114H462.147L462.3 113.114H462.249C462.158 113.256 462.019 113.408 461.832 113.57C461.647 113.732 461.413 113.869 461.129 113.983C460.847 114.097 460.516 114.153 460.136 114.153ZM460.425 113.25C460.823 113.25 461.171 113.172 461.469 113.016C461.771 112.859 462.012 112.658 462.194 112.411C462.379 112.163 462.494 111.903 462.539 111.631L462.692 110.71C462.641 110.761 462.54 110.808 462.39 110.851C462.239 110.891 462.069 110.926 461.879 110.957C461.691 110.986 461.508 111.011 461.329 111.034C461.153 111.054 461.011 111.071 460.903 111.085C460.636 111.119 460.381 111.175 460.14 111.251C459.901 111.325 459.7 111.437 459.535 111.588C459.373 111.736 459.272 111.937 459.232 112.193C459.173 112.543 459.256 112.807 459.484 112.986C459.711 113.162 460.025 113.25 460.425 113.25ZM470.477 108.92L469.522 109.176C469.488 109.023 469.429 108.875 469.343 108.733C469.261 108.588 469.133 108.47 468.96 108.379C468.789 108.286 468.556 108.239 468.261 108.239C467.86 108.239 467.512 108.331 467.217 108.516C466.922 108.697 466.752 108.929 466.71 109.21C466.667 109.457 466.724 109.655 466.88 109.803C467.037 109.95 467.298 110.071 467.664 110.165L468.602 110.403C469.164 110.548 469.565 110.766 469.804 111.055C470.045 111.342 470.127 111.716 470.051 112.176C469.988 112.551 469.825 112.886 469.561 113.182C469.297 113.477 468.958 113.71 468.547 113.881C468.135 114.051 467.676 114.136 467.17 114.136C466.497 114.136 465.966 113.991 465.576 113.702C465.187 113.409 464.98 112.986 464.954 112.432L465.96 112.193C465.985 112.543 466.11 112.807 466.335 112.986C466.562 113.162 466.88 113.25 467.289 113.25C467.758 113.25 468.149 113.151 468.461 112.952C468.774 112.75 468.951 112.509 468.994 112.227C469.037 111.997 468.991 111.805 468.858 111.652C468.727 111.499 468.5 111.384 468.176 111.307L467.136 111.051C466.556 110.906 466.15 110.685 465.917 110.386C465.687 110.088 465.61 109.713 465.687 109.261C465.75 108.892 465.909 108.565 466.164 108.281C466.423 107.997 466.747 107.774 467.136 107.612C467.528 107.45 467.954 107.369 468.414 107.369C469.062 107.369 469.547 107.511 469.868 107.795C470.189 108.077 470.392 108.452 470.477 108.92ZM473.985 114.136C473.357 114.136 472.839 113.997 472.43 113.719C472.021 113.438 471.735 113.045 471.573 112.543C471.411 112.037 471.386 111.449 471.496 110.778C471.607 110.108 471.827 109.517 472.157 109.006C472.487 108.491 472.897 108.091 473.388 107.804C473.88 107.514 474.42 107.369 475.008 107.369C475.349 107.369 475.677 107.426 475.992 107.54C476.308 107.653 476.58 107.838 476.81 108.094C477.04 108.347 477.201 108.682 477.292 109.099C477.383 109.517 477.377 110.031 477.275 110.642L477.207 111.068H472.161L472.298 110.199H476.32C476.386 109.83 476.369 109.5 476.269 109.21C476.173 108.92 476.004 108.692 475.762 108.524C475.523 108.357 475.221 108.273 474.854 108.273C474.477 108.273 474.124 108.375 473.798 108.58C473.471 108.781 473.198 109.037 472.979 109.347C472.761 109.653 472.624 109.966 472.57 110.284L472.451 111.034C472.366 111.577 472.379 112.009 472.489 112.33C472.603 112.651 472.8 112.882 473.082 113.024C473.363 113.163 473.715 113.233 474.138 113.233C474.408 113.233 474.657 113.196 474.884 113.122C475.112 113.045 475.315 112.932 475.494 112.781C475.673 112.628 475.823 112.437 475.945 112.21L476.866 112.483C476.71 112.812 476.489 113.102 476.205 113.352C475.924 113.599 475.594 113.793 475.217 113.932C474.842 114.068 474.431 114.136 473.985 114.136ZM479.118 114.068C478.902 114.068 478.722 113.994 478.577 113.847C478.432 113.696 478.357 113.514 478.351 113.301C478.348 113.088 478.423 112.911 478.577 112.768C478.73 112.624 478.911 112.551 479.118 112.551C479.328 112.551 479.51 112.625 479.663 112.773C479.817 112.92 479.891 113.097 479.885 113.301C479.882 113.443 479.845 113.572 479.774 113.689C479.706 113.805 479.614 113.898 479.497 113.966C479.384 114.034 479.257 114.068 479.118 114.068ZM481.57 114L482.661 107.455H483.633L483.462 108.477H483.548C483.744 108.128 484.009 107.857 484.344 107.663C484.683 107.467 485.065 107.369 485.491 107.369C485.917 107.369 486.259 107.467 486.518 107.663C486.776 107.857 486.957 108.128 487.059 108.477H487.127C487.349 108.136 487.644 107.866 488.013 107.668C488.386 107.469 488.806 107.369 489.275 107.369C489.854 107.369 490.3 107.553 490.613 107.919C490.928 108.286 491.022 108.852 490.894 109.619L490.161 114H489.156L489.888 109.619C489.965 109.134 489.888 108.788 489.658 108.584C489.431 108.376 489.138 108.273 488.781 108.273C488.32 108.273 487.941 108.411 487.643 108.686C487.344 108.962 487.161 109.312 487.093 109.739L486.377 114H485.354L486.104 109.517C486.164 109.142 486.093 108.841 485.891 108.614C485.69 108.386 485.397 108.273 485.013 108.273C484.752 108.273 484.496 108.344 484.246 108.486C483.996 108.625 483.782 108.818 483.603 109.065C483.424 109.31 483.309 109.591 483.258 109.909L482.576 114H481.57ZM493.909 114.153C493.494 114.153 493.131 114.075 492.818 113.919C492.506 113.76 492.274 113.531 492.124 113.233C491.973 112.932 491.932 112.568 492 112.142C492.065 111.767 492.192 111.463 492.379 111.23C492.567 110.994 492.794 110.81 493.061 110.676C493.331 110.54 493.621 110.439 493.93 110.374C494.243 110.305 494.554 110.253 494.864 110.216C495.267 110.165 495.595 110.125 495.848 110.097C496.101 110.068 496.291 110.021 496.419 109.956C496.547 109.891 496.625 109.778 496.653 109.619V109.585C496.722 109.168 496.666 108.842 496.487 108.609C496.308 108.374 495.989 108.256 495.528 108.256C495.051 108.256 494.652 108.361 494.331 108.571C494.01 108.781 493.773 109.006 493.619 109.244L492.733 108.903C492.966 108.506 493.244 108.196 493.568 107.974C493.892 107.75 494.232 107.594 494.587 107.506C494.942 107.415 495.284 107.369 495.614 107.369C495.824 107.369 496.061 107.395 496.325 107.446C496.589 107.494 496.837 107.595 497.067 107.749C497.3 107.902 497.474 108.134 497.591 108.443C497.71 108.753 497.727 109.168 497.642 109.688L496.926 114H495.92L496.074 113.114H496.023C495.932 113.256 495.793 113.408 495.605 113.57C495.42 113.732 495.186 113.869 494.902 113.983C494.621 114.097 494.29 114.153 493.909 114.153ZM494.199 113.25C494.597 113.25 494.945 113.172 495.243 113.016C495.544 112.859 495.786 112.658 495.967 112.411C496.152 112.163 496.267 111.903 496.312 111.631L496.466 110.71C496.415 110.761 496.314 110.808 496.163 110.851C496.013 110.891 495.842 110.926 495.652 110.957C495.464 110.986 495.281 111.011 495.102 111.034C494.926 111.054 494.784 111.071 494.676 111.085C494.409 111.119 494.155 111.175 493.913 111.251C493.675 111.325 493.473 111.437 493.308 111.588C493.146 111.736 493.045 111.937 493.006 112.193C492.946 112.543 493.03 112.807 493.257 112.986C493.484 113.162 493.798 113.25 494.199 113.25ZM501.225 114.136C500.676 114.136 500.216 113.999 499.844 113.723C499.472 113.445 499.209 113.053 499.056 112.547C498.905 112.038 498.887 111.438 499 110.744C499.117 110.057 499.334 109.46 499.652 108.955C499.973 108.449 500.367 108.058 500.833 107.783C501.299 107.507 501.807 107.369 502.358 107.369C502.784 107.369 503.11 107.44 503.334 107.582C503.561 107.722 503.726 107.881 503.828 108.06C503.931 108.236 504.009 108.381 504.063 108.494H504.148L504.685 105.273H505.691L504.242 114H503.27L503.441 112.994H503.321C503.228 113.114 503.097 113.264 502.929 113.446C502.762 113.625 502.54 113.786 502.265 113.928C501.992 114.067 501.645 114.136 501.225 114.136ZM501.472 113.233C501.875 113.233 502.236 113.128 502.554 112.918C502.875 112.705 503.142 112.411 503.355 112.036C503.569 111.658 503.716 111.222 503.799 110.727C503.881 110.239 503.878 109.811 503.79 109.445C503.702 109.075 503.533 108.788 503.283 108.584C503.033 108.376 502.702 108.273 502.29 108.273C501.867 108.273 501.499 108.382 501.186 108.601C500.874 108.817 500.62 109.111 500.424 109.483C500.228 109.852 500.091 110.267 500.015 110.727C499.938 111.193 499.936 111.616 500.01 111.997C500.084 112.375 500.24 112.676 500.479 112.901C500.721 113.122 501.051 113.233 501.472 113.233ZM508.942 114.136C508.314 114.136 507.796 113.997 507.387 113.719C506.978 113.438 506.692 113.045 506.53 112.543C506.368 112.037 506.343 111.449 506.453 110.778C506.564 110.108 506.784 109.517 507.114 109.006C507.444 108.491 507.854 108.091 508.346 107.804C508.837 107.514 509.377 107.369 509.965 107.369C510.306 107.369 510.634 107.426 510.949 107.54C511.265 107.653 511.537 107.838 511.767 108.094C511.998 108.347 512.158 108.682 512.249 109.099C512.34 109.517 512.334 110.031 512.232 110.642L512.164 111.068H507.118L507.255 110.199H511.277C511.343 109.83 511.326 109.5 511.226 109.21C511.13 108.92 510.961 108.692 510.719 108.524C510.48 108.357 510.178 108.273 509.811 108.273C509.434 108.273 509.081 108.375 508.755 108.58C508.428 108.781 508.155 109.037 507.936 109.347C507.718 109.653 507.581 109.966 507.527 110.284L507.408 111.034C507.323 111.577 507.336 112.009 507.446 112.33C507.56 112.651 507.757 112.882 508.039 113.024C508.32 113.163 508.672 113.233 509.096 113.233C509.365 113.233 509.614 113.196 509.841 113.122C510.069 113.045 510.272 112.932 510.451 112.781C510.63 112.628 510.78 112.437 510.902 112.21L511.823 112.483C511.667 112.812 511.446 113.102 511.162 113.352C510.881 113.599 510.551 113.793 510.174 113.932C509.799 114.068 509.388 114.136 508.942 114.136Z" fill="white"/>
<path d="M529 122L524 119.113V124.887L529 122ZM372 122V122.5H524.5V122V121.5H372V122Z" fill="white"/>
<path d="M371 178L376 180.887V175.113L371 178ZM529 178V177.5L375.5 177.5V178V178.5L529 178.5V178Z" fill="white"/>
<path d="M148.5 178L153.5 180.887V175.113L148.5 178ZM148.5 231.5L153.5 234.387V228.613L148.5 231.5ZM249 178V177.5H153V178V178.5H249V178ZM217 231.5V231H153V231.5V232H217V231.5ZM249 185V184.5H229V185V185.5H249V185ZM223 191H222.5V225.5H223H223.5V191H223ZM229 185V184.5C225.41 184.5 222.5 187.41 222.5 191H223H223.5C223.5 187.962 225.962 185.5 229 185.5V185ZM217 231.5V232C220.59 232 223.5 229.09 223.5 225.5H223H222.5C222.5 228.538 220.038 231 217 231V231.5Z" fill="white"/>
<path d="M217.495 124L217.495 124.5L217.495 124.5L217.495 124ZM148.5 124L153.5 126.887L153.5 121.113L148.5 124ZM229.5 171L229.5 170.5L229.5 170.5L229.5 171ZM223.5 165L223 165L223.5 165ZM223.5 130L223 130L223 130L223.5 130ZM217.495 124L217.495 123.5L153 123.5L153 124L153 124.5L217.495 124.5L217.495 124ZM249 171L249 170.5L229.5 170.5L229.5 171L229.5 171.5L249 171.5L249 171ZM223.5 165L224 165L224 130L223.5 130L223 130L223 165L223.5 165ZM229.5 171L229.5 170.5C226.462 170.5 224 168.038 224 165L223.5 165L223 165C223 168.59 225.91 171.5 229.5 171.5L229.5 171ZM217.495 124L217.495 124.5C220.533 124.5 223 126.963 223 130L223.5 130L224 130C224 126.41 221.084 123.5 217.495 123.5L217.495 124Z" fill="white"/>
</svg>
