<svg width="720" height="110" viewBox="0 0 720 110" fill="none" xmlns="http://www.w3.org/2000/svg">
<g clip-path="url(#clip0_8_8)">
<g filter="url(#filter0_di_8_8)">
<rect x="1" y="15" width="62" height="62" rx="13" stroke="#1F50FF" stroke-width="2" shape-rendering="crispEdges"/>
</g>
<path d="M29.416 62.768C26.2587 62.768 23.4 62.2773 20.84 61.296C18.28 60.3147 16.0827 59.184 14.248 57.904L15.72 55.856C17.4267 57.1787 19.368 58.2667 21.544 59.12C23.72 59.9307 26.4293 60.336 29.672 60.336C32.8293 60.336 35.1973 59.7387 36.776 58.544C38.3547 57.3067 39.144 55.8773 39.144 54.256C39.144 53.5733 39.016 52.912 38.76 52.272C38.5467 51.632 38.0773 51.0347 37.352 50.48C36.6693 49.8827 35.6027 49.328 34.152 48.816C32.7013 48.304 30.76 47.792 28.328 47.28C24.4453 46.512 21.416 45.4453 19.24 44.08C17.1067 42.7147 16.04 40.9227 16.04 38.704C16.04 36.4427 17.0213 34.5227 18.984 32.944C20.9467 31.3227 23.976 30.512 28.072 30.512C30.12 30.512 32.232 30.8747 34.408 31.6C36.584 32.2827 38.3973 33.1787 39.848 34.288L38.312 36.336C36.9893 35.312 35.432 34.5013 33.64 33.904C31.8907 33.264 29.9707 32.944 27.88 32.944C25.6187 32.944 23.848 33.2 22.568 33.712C21.288 34.224 20.3707 34.9067 19.816 35.76C19.2613 36.6133 18.984 37.5307 18.984 38.512C18.984 40.1333 19.7947 41.4133 21.416 42.352C23.08 43.2907 25.64 44.1227 29.096 44.848C32.6373 45.5733 35.3467 46.3627 37.224 47.216C39.1013 48.0693 40.3813 49.0507 41.064 50.16C41.7467 51.2693 42.088 52.592 42.088 54.128C42.088 55.664 41.5973 57.0933 40.616 58.416C39.6347 59.696 38.184 60.7413 36.264 61.552C34.3867 62.3627 32.104 62.768 29.416 62.768Z" fill="#1F50FF"/>
<path d="M43.94 61V59.64H47.62V50.24H44.76V49.18C45.2667 49.1133 45.7133 49.0333 46.1 48.94C46.4867 48.8467 46.84 48.7467 47.16 48.64C47.48 48.52 47.7733 48.3867 48.04 48.24H49.26V59.64H52.6V61H43.94Z" fill="#1F50FF"/>
<rect x="114" y="15" width="62" height="62" rx="13" stroke="#1F50FF" stroke-width="2"/>
<path d="M142.416 62.768C139.259 62.768 136.4 62.2773 133.84 61.296C131.28 60.3147 129.083 59.184 127.248 57.904L128.72 55.856C130.427 57.1787 132.368 58.2667 134.544 59.12C136.72 59.9307 139.429 60.336 142.672 60.336C145.829 60.336 148.197 59.7387 149.776 58.544C151.355 57.3067 152.144 55.8773 152.144 54.256C152.144 53.5733 152.016 52.912 151.76 52.272C151.547 51.632 151.077 51.0347 150.352 50.48C149.669 49.8827 148.603 49.328 147.152 48.816C145.701 48.304 143.76 47.792 141.328 47.28C137.445 46.512 134.416 45.4453 132.24 44.08C130.107 42.7147 129.04 40.9227 129.04 38.704C129.04 36.4427 130.021 34.5227 131.984 32.944C133.947 31.3227 136.976 30.512 141.072 30.512C143.12 30.512 145.232 30.8747 147.408 31.6C149.584 32.2827 151.397 33.1787 152.848 34.288L151.312 36.336C149.989 35.312 148.432 34.5013 146.64 33.904C144.891 33.264 142.971 32.944 140.88 32.944C138.619 32.944 136.848 33.2 135.568 33.712C134.288 34.224 133.371 34.9067 132.816 35.76C132.261 36.6133 131.984 37.5307 131.984 38.512C131.984 40.1333 132.795 41.4133 134.416 42.352C136.08 43.2907 138.64 44.1227 142.096 44.848C145.637 45.5733 148.347 46.3627 150.224 47.216C152.101 48.0693 153.381 49.0507 154.064 50.16C154.747 51.2693 155.088 52.592 155.088 54.128C155.088 55.664 154.597 57.0933 153.616 58.416C152.635 59.696 151.184 60.7413 149.264 61.552C147.387 62.3627 145.104 62.768 142.416 62.768Z" fill="#1F50FF"/>
<path d="M156.46 61V60.02C157.9 58.7533 159.113 57.64 160.1 56.68C161.1 55.7067 161.86 54.8333 162.38 54.06C162.9 53.2867 163.16 52.5467 163.16 51.84C163.16 51.1067 162.933 50.5067 162.48 50.04C162.027 49.5733 161.327 49.34 160.38 49.34C159.78 49.34 159.22 49.4867 158.7 49.78C158.193 50.0733 157.733 50.44 157.32 50.88L156.38 49.94C156.953 49.3533 157.567 48.8867 158.22 48.54C158.887 48.18 159.673 48 160.58 48C161.433 48 162.167 48.16 162.78 48.48C163.407 48.7867 163.887 49.22 164.22 49.78C164.567 50.34 164.74 51 164.74 51.76C164.74 52.56 164.493 53.3667 164 54.18C163.507 54.9933 162.813 55.8533 161.92 56.76C161.04 57.6533 160.02 58.6333 158.86 59.7C159.26 59.66 159.66 59.6333 160.06 59.62C160.46 59.5933 160.853 59.58 161.24 59.58H165.44V61H156.46Z" fill="#1F50FF"/>
<rect x="201" y="15" width="62" height="62" rx="13" stroke="#1F50FF" stroke-width="2"/>
<path d="M229.416 62.768C226.259 62.768 223.4 62.2773 220.84 61.296C218.28 60.3147 216.083 59.184 214.248 57.904L215.72 55.856C217.427 57.1787 219.368 58.2667 221.544 59.12C223.72 59.9307 226.429 60.336 229.672 60.336C232.829 60.336 235.197 59.7387 236.776 58.544C238.355 57.3067 239.144 55.8773 239.144 54.256C239.144 53.5733 239.016 52.912 238.76 52.272C238.547 51.632 238.077 51.0347 237.352 50.48C236.669 49.8827 235.603 49.328 234.152 48.816C232.701 48.304 230.76 47.792 228.328 47.28C224.445 46.512 221.416 45.4453 219.24 44.08C217.107 42.7147 216.04 40.9227 216.04 38.704C216.04 36.4427 217.021 34.5227 218.984 32.944C220.947 31.3227 223.976 30.512 228.072 30.512C230.12 30.512 232.232 30.8747 234.408 31.6C236.584 32.2827 238.397 33.1787 239.848 34.288L238.312 36.336C236.989 35.312 235.432 34.5013 233.64 33.904C231.891 33.264 229.971 32.944 227.88 32.944C225.619 32.944 223.848 33.2 222.568 33.712C221.288 34.224 220.371 34.9067 219.816 35.76C219.261 36.6133 218.984 37.5307 218.984 38.512C218.984 40.1333 219.795 41.4133 221.416 42.352C223.08 43.2907 225.64 44.1227 229.096 44.848C232.637 45.5733 235.347 46.3627 237.224 47.216C239.101 48.0693 240.381 49.0507 241.064 50.16C241.747 51.2693 242.088 52.592 242.088 54.128C242.088 55.664 241.597 57.0933 240.616 58.416C239.635 59.696 238.184 60.7413 236.264 61.552C234.387 62.3627 232.104 62.768 229.416 62.768Z" fill="#1F50FF"/>
<path d="M247.74 61.24C247.007 61.24 246.353 61.1533 245.78 60.98C245.207 60.8067 244.7 60.5867 244.26 60.32C243.833 60.0533 243.46 59.76 243.14 59.44L243.98 58.36C244.407 58.76 244.92 59.1133 245.52 59.42C246.12 59.7267 246.827 59.88 247.64 59.88C248.227 59.88 248.747 59.7867 249.2 59.6C249.667 59.4 250.033 59.1267 250.3 58.78C250.567 58.42 250.7 58.0067 250.7 57.54C250.7 57.0333 250.547 56.5933 250.24 56.22C249.933 55.8333 249.44 55.5333 248.76 55.32C248.08 55.1067 247.18 55 246.06 55V53.74C247.073 53.74 247.887 53.6333 248.5 53.42C249.113 53.2067 249.553 52.9267 249.82 52.58C250.1 52.22 250.24 51.8133 250.24 51.36C250.24 50.7333 250 50.24 249.52 49.88C249.053 49.52 248.427 49.34 247.64 49.34C247.04 49.34 246.467 49.46 245.92 49.7C245.387 49.94 244.913 50.2533 244.5 50.64L243.62 49.6C244.153 49.1333 244.76 48.7533 245.44 48.46C246.133 48.1533 246.887 48 247.7 48C248.5 48 249.213 48.1267 249.84 48.38C250.48 48.6333 250.987 49 251.36 49.48C251.733 49.96 251.92 50.5467 251.92 51.24C251.92 52.0133 251.66 52.6467 251.14 53.14C250.633 53.6333 249.987 54.0133 249.2 54.28V54.36C249.76 54.48 250.28 54.6867 250.76 54.98C251.253 55.26 251.64 55.62 251.92 56.06C252.213 56.5 252.36 57.0133 252.36 57.6C252.36 58.36 252.147 59.0133 251.72 59.56C251.307 60.0933 250.753 60.5067 250.06 60.8C249.367 61.0933 248.593 61.24 247.74 61.24Z" fill="#1F50FF"/>
<rect x="288" y="15" width="62" height="62" rx="13" stroke="#1F50FF" stroke-width="2"/>
<path d="M316.416 62.768C313.259 62.768 310.4 62.2773 307.84 61.296C305.28 60.3147 303.083 59.184 301.248 57.904L302.72 55.856C304.427 57.1787 306.368 58.2667 308.544 59.12C310.72 59.9307 313.429 60.336 316.672 60.336C319.829 60.336 322.197 59.7387 323.776 58.544C325.355 57.3067 326.144 55.8773 326.144 54.256C326.144 53.5733 326.016 52.912 325.76 52.272C325.547 51.632 325.077 51.0347 324.352 50.48C323.669 49.8827 322.603 49.328 321.152 48.816C319.701 48.304 317.76 47.792 315.328 47.28C311.445 46.512 308.416 45.4453 306.24 44.08C304.107 42.7147 303.04 40.9227 303.04 38.704C303.04 36.4427 304.021 34.5227 305.984 32.944C307.947 31.3227 310.976 30.512 315.072 30.512C317.12 30.512 319.232 30.8747 321.408 31.6C323.584 32.2827 325.397 33.1787 326.848 34.288L325.312 36.336C323.989 35.312 322.432 34.5013 320.64 33.904C318.891 33.264 316.971 32.944 314.88 32.944C312.619 32.944 310.848 33.2 309.568 33.712C308.288 34.224 307.371 34.9067 306.816 35.76C306.261 36.6133 305.984 37.5307 305.984 38.512C305.984 40.1333 306.795 41.4133 308.416 42.352C310.08 43.2907 312.64 44.1227 316.096 44.848C319.637 45.5733 322.347 46.3627 324.224 47.216C326.101 48.0693 327.381 49.0507 328.064 50.16C328.747 51.2693 329.088 52.592 329.088 54.128C329.088 55.664 328.597 57.0933 327.616 58.416C326.635 59.696 325.184 60.7413 323.264 61.552C321.387 62.3627 319.104 62.768 316.416 62.768Z" fill="#1F50FF"/>
<path d="M336.36 61V52.2C336.373 51.8533 336.387 51.48 336.4 51.08C336.427 50.6667 336.447 50.2867 336.46 49.94H336.36C336.16 50.2467 335.947 50.56 335.72 50.88C335.493 51.1867 335.273 51.4933 335.06 51.8L331.6 56.16H339.9V57.48H329.78V56.38L336.16 48.24H337.92V61H336.36Z" fill="#1F50FF"/>
<rect x="656" y="15" width="62" height="62" rx="13" stroke="#1F50FF" stroke-width="2"/>
<path d="M684.416 62.768C681.259 62.768 678.4 62.2773 675.84 61.296C673.28 60.3147 671.083 59.184 669.248 57.904L670.72 55.856C672.427 57.1787 674.368 58.2667 676.544 59.12C678.72 59.9307 681.429 60.336 684.672 60.336C687.829 60.336 690.197 59.7387 691.776 58.544C693.355 57.3067 694.144 55.8773 694.144 54.256C694.144 53.5733 694.016 52.912 693.76 52.272C693.547 51.632 693.077 51.0347 692.352 50.48C691.669 49.8827 690.603 49.328 689.152 48.816C687.701 48.304 685.76 47.792 683.328 47.28C679.445 46.512 676.416 45.4453 674.24 44.08C672.107 42.7147 671.04 40.9227 671.04 38.704C671.04 36.4427 672.021 34.5227 673.984 32.944C675.947 31.3227 678.976 30.512 683.072 30.512C685.12 30.512 687.232 30.8747 689.408 31.6C691.584 32.2827 693.397 33.1787 694.848 34.288L693.312 36.336C691.989 35.312 690.432 34.5013 688.64 33.904C686.891 33.264 684.971 32.944 682.88 32.944C680.619 32.944 678.848 33.2 677.568 33.712C676.288 34.224 675.371 34.9067 674.816 35.76C674.261 36.6133 673.984 37.5307 673.984 38.512C673.984 40.1333 674.795 41.4133 676.416 42.352C678.08 43.2907 680.64 44.1227 684.096 44.848C687.637 45.5733 690.347 46.3627 692.224 47.216C694.101 48.0693 695.381 49.0507 696.064 50.16C696.747 51.2693 697.088 52.592 697.088 54.128C697.088 55.664 696.597 57.0933 695.616 58.416C694.635 59.696 693.184 60.7413 691.264 61.552C689.387 62.3627 687.104 62.768 684.416 62.768Z" fill="#1F50FF"/>
<path d="M698.86 61V51.28H700.22L700.36 52.94H700.44C700.947 52.3933 701.493 51.94 702.08 51.58C702.667 51.22 703.34 51.04 704.1 51.04C705.247 51.04 706.093 51.3733 706.64 52.04C707.187 52.7067 707.46 53.68 707.46 54.96V61H705.82V55.18C705.82 54.26 705.647 53.58 705.3 53.14C704.953 52.6867 704.38 52.46 703.58 52.46C703.007 52.46 702.493 52.6067 702.04 52.9C701.587 53.1933 701.073 53.6333 700.5 54.22V61H698.86Z" fill="#1F50FF"/>
<path d="M721 97L711 91.2265V102.774L721 97ZM0 97L0 98L712 98V97V96L0 96L0 97Z" fill="#07C983"/>
<line x1="368" y1="48" x2="597" y2="48" stroke="#1F50FF" stroke-width="2" stroke-dasharray="4 4"/>
</g>
<defs>
<filter id="filter0_di_8_8" x="-4" y="10" width="72" height="72" filterUnits="userSpaceOnUse" color-interpolation-filters="sRGB">
<feFlood flood-opacity="0" result="BackgroundImageFix"/>
<feColorMatrix in="SourceAlpha" type="matrix" values="0 0 0 0 0 0 0 0 0 0 0 0 0 0 0 0 0 0 127 0" result="hardAlpha"/>
<feOffset/>
<feGaussianBlur stdDeviation="2"/>
<feComposite in2="hardAlpha" operator="out"/>
<feColorMatrix type="matrix" values="0 0 0 0 0.121751 0 0 0 0 0.312038 0 0 0 0 1 0 0 0 1 0"/>
<feBlend mode="normal" in2="BackgroundImageFix" result="effect1_dropShadow_8_8"/>
<feBlend mode="normal" in="SourceGraphic" in2="effect1_dropShadow_8_8" result="shape"/>
<feColorMatrix in="SourceAlpha" type="matrix" values="0 0 0 0 0 0 0 0 0 0 0 0 0 0 0 0 0 0 127 0" result="hardAlpha"/>
<feOffset/>
<feGaussianBlur stdDeviation="6.45"/>
<feComposite in2="hardAlpha" operator="arithmetic" k2="-1" k3="1"/>
<feColorMatrix type="matrix" values="0 0 0 0 0.121751 0 0 0 0 0.312038 0 0 0 0 1 0 0 0 1 0"/>
<feBlend mode="normal" in2="shape" result="effect2_innerShadow_8_8"/>
</filter>
<clipPath id="clip0_8_8">
<rect width="720" height="110" fill="white"/>
</clipPath>
</defs>
</svg>
